<svg version="1.1" xmlns="http://www.w3.org/2000/svg">
    <symbol id="load" viewBox="0 0 36 36">
        <circle fill="var(--accent-color, #dfac14)" fill-opacity="0.4" cx="18" cy="4" r="3"/>
        <circle fill="var(--accent-color, #dfac14)" fill-opacity="0.55" cx="27.9" cy="8.1" r="3"/>
        <circle fill="var(--accent-color, #dfac14)" fill-opacity="0.7" cx="32" cy="18" r="3"/>
        <circle fill="var(--accent-color, #dfac14)" fill-opacity="0.85" cx="27.9" cy="27.9" r="3"/>
        <circle fill="var(--accent-color, #dfac14)" fill-opacity="0.95" cx="18" cy="32" r="3"/>
        <circle fill="var(--accent-color, #dfac14)" fill-opacity="1" cx="8.1" cy="27.9" r="3"/>
        <circle fill="var(--accent-color, #dfac14)" fill-opacity="0" cx="4" cy="18" r="3"/>
    </symbol>
    <symbol id="logo" viewBox="0 0 90 31">
        <rect x="6" y="5" width="33" height="26" rx="8" fill="#FB7C2F"/>
        <rect width="33" height="26" rx="8" fill="#FB7C2F" fill-opacity="0.2"/>
        <path fill-rule="evenodd" clip-rule="evenodd" d="M23.1335 20.5701L24.419 19.1596L27.1865 23.9982H30.9003L26.508 16.7492L30.9003 11H27.0258L24.2226 15.0798L23.1335 16.7314V11H20V23.9982H23.1335V20.5701ZM37.712 23.1323C37.7953 23.5132 37.8906 23.8018 37.9977 23.9982H41.0062V23.8465C40.7444 23.3763 40.6075 22.6978 40.5956 21.811V17.5348C40.5777 16.4874 40.2117 15.6631 39.4975 15.062C38.7833 14.4608 37.8102 14.1603 36.5782 14.1603C35.3463 14.1603 34.3315 14.4519 33.534 15.0352C32.7425 15.6184 32.3467 16.3772 32.3467 17.3116H35.3552C35.3552 16.6094 35.7123 16.2582 36.4265 16.2582C37.1942 16.2582 37.5781 16.7016 37.5781 17.5884V18.0973H36.6497C35.1737 18.0973 34.0488 18.3651 33.2751 18.9007C32.5014 19.4364 32.1146 20.2279 32.1146 21.2754C32.1146 22.1086 32.433 22.802 33.0698 23.3555C33.7066 23.903 34.4803 24.1768 35.3909 24.1768C36.3848 24.1768 37.1585 23.8286 37.712 23.1323ZM37.0425 21.7932C36.7985 21.9539 36.489 22.0342 36.114 22.0342C35.8283 22.0342 35.5933 21.9509 35.4088 21.7843C35.2243 21.6117 35.132 21.3885 35.132 21.1147C35.132 20.1744 35.6558 19.7042 36.7032 19.7042H37.5781V21.2486C37.471 21.451 37.2924 21.6325 37.0425 21.7932ZM51.237 19.24C51.237 20.7398 50.8977 21.939 50.2193 22.8377C49.5467 23.7304 48.6361 24.1768 47.4875 24.1768C46.6007 24.1768 45.8716 23.8524 45.3003 23.2037V27.712H42.2918V14.3388H45.1039L45.1932 15.2316C45.7705 14.5174 46.5293 14.1603 47.4696 14.1603C48.6599 14.1603 49.5854 14.6007 50.246 15.4815C50.9067 16.3564 51.237 17.5616 51.237 19.0971V19.24ZM48.2285 19.0525C48.2285 17.3384 47.7285 16.4814 46.7287 16.4814C46.0145 16.4814 45.5383 16.7373 45.3003 17.2492V21.0522C45.5622 21.5879 46.0442 21.8557 46.7465 21.8557C47.7047 21.8557 48.1987 21.0284 48.2285 19.3739V19.0525ZM56.7453 24.1768C57.8285 24.1768 58.6885 23.7691 59.3253 22.9537L59.4146 23.9982H62.2356V14.3388H59.2093V21.1147C58.9176 21.6087 58.4266 21.8557 57.7362 21.8557C56.9328 21.8557 56.531 21.442 56.531 20.6148V14.3388H53.5225V20.5969C53.5225 21.7515 53.7933 22.6383 54.3349 23.2573C54.8825 23.8703 55.6859 24.1768 56.7453 24.1768ZM68.949 21.2843C68.949 21.0284 68.8151 20.8231 68.5473 20.6683C68.2794 20.5136 67.7706 20.3529 67.0207 20.1863C66.2708 20.0196 65.6518 19.8024 65.1638 19.5346C64.6758 19.2608 64.3038 18.9305 64.0479 18.5436C63.792 18.1568 63.664 17.7134 63.664 17.2134C63.664 16.3267 64.03 15.5976 64.7621 15.0262C65.3768 14.5415 66.1509 14.2603 67.0845 14.1825V11.9887H68.5185V14.2111C69.3917 14.3171 70.1215 14.5888 70.7077 15.0262C71.4814 15.6035 71.8683 16.3624 71.8683 17.3027H68.8508C68.8508 16.529 68.4431 16.1422 67.6278 16.1422C67.3123 16.1422 67.0475 16.2314 66.8332 16.41C66.619 16.5826 66.5118 16.7998 66.5118 17.0617C66.5118 17.3295 66.6428 17.5467 66.9046 17.7134C67.1665 17.88 67.5831 18.0169 68.1545 18.124C68.7318 18.2312 69.2377 18.3591 69.6721 18.5079C71.1243 19.0078 71.8504 19.9036 71.8504 21.195C71.8504 22.0759 71.4576 22.793 70.672 23.3465C70.0855 23.7629 69.3676 24.0227 68.5185 24.1258V26.3284H67.0845V24.1536C66.4774 24.1012 65.9234 23.9601 65.4227 23.7304C64.774 23.4328 64.2681 23.0281 63.905 22.5163C63.542 22.0045 63.3605 21.4658 63.3605 20.9004H66.1726C66.1845 21.3468 66.3333 21.6742 66.619 21.8825C66.9046 22.0848 67.2707 22.186 67.717 22.186C68.1277 22.186 68.4342 22.1027 68.6365 21.936C68.8449 21.7694 68.949 21.5521 68.949 21.2843ZM77.7694 14.3388V11.9374H74.7609V14.3388H73.5289V16.4278H74.7609V21.2218C74.7609 22.2157 75.0078 22.9567 75.5018 23.4447C75.9958 23.9328 76.7606 24.1768 77.7962 24.1768C78.3854 24.1768 78.9508 24.0905 79.4924 23.9179V21.7664C79.29 21.8021 79.04 21.82 78.7425 21.82C78.3556 21.82 78.0967 21.7485 77.9658 21.6057C77.8348 21.4629 77.7694 21.2099 77.7694 20.8469V16.4278H79.3584V14.3388H77.7694ZM86.9915 23.9982C86.8843 23.8018 86.7891 23.5132 86.7058 23.1323C86.1523 23.8286 85.3786 24.1768 84.3847 24.1768C83.4741 24.1768 82.7004 23.903 82.0636 23.3555C81.4268 22.802 81.1083 22.1086 81.1083 21.2754C81.1083 20.2279 81.4952 19.4364 82.2689 18.9007C83.0426 18.3651 84.1675 18.0973 85.6434 18.0973H86.5719V17.5884C86.5719 16.7016 86.188 16.2582 85.4203 16.2582C84.7061 16.2582 84.349 16.6094 84.349 17.3116H81.3405C81.3405 16.3772 81.7362 15.6184 82.5278 15.0352C83.3253 14.4519 84.34 14.1603 85.572 14.1603C86.804 14.1603 87.7771 14.4608 88.4913 15.062C89.2055 15.6631 89.5715 16.4874 89.5893 17.5348V21.811C89.6012 22.6978 89.7381 23.3763 90 23.8465V23.9982H86.9915ZM85.1078 22.0342C85.4827 22.0342 85.7922 21.9539 86.0362 21.7932C86.2862 21.6325 86.4648 21.451 86.5719 21.2486V19.7042H85.697C84.6495 19.7042 84.1258 20.1744 84.1258 21.1147C84.1258 21.3885 84.218 21.6117 84.4025 21.7843C84.587 21.9509 84.8221 22.0342 85.1078 22.0342Z" fill="black"/>
    </symbol>
    <symbol id="logout" viewBox="0 0 16 16">
        <path d="M9.99998 14H1.99998V1.99998H9.99998V2.99998H12V0H0V16H12V13H10V14H9.99998Z" fill="#CBCCD0"/>
        <path d="M12.293 4.29297L10.8789 5.70702L12.1719 6.99998H7V8.99999H12.1719L10.8789 10.293L12.293 11.707L16 7.99997L12.293 4.29297Z" fill="#CBCCD0"/>
    </symbol>
    <symbol id="google" viewBox="0 0 18 18">
        <path d="M17.6589 7.33402C17.737 7.33402 17.8003 7.39888 17.8003 7.47889V9C17.8003 9.56932 17.7487 10.126 17.6497 10.666C16.8835 14.8604 13.2752 18.0303 8.95014 17.9998C4.09707 17.9655 0.213154 13.9498 0.223899 8.97972C0.234576 4.01857 4.16518 0 9.0121 0C11.3867 0 13.5413 0.964758 15.1232 2.53188C15.1803 2.58845 15.1818 2.68168 15.1256 2.7392L13.0242 4.89115C12.9701 4.94656 12.8827 4.948 12.8273 4.89396C11.8345 3.92614 10.4912 3.33197 9.0121 3.33197C5.95781 3.33197 3.49831 5.83284 3.47757 8.96066C3.45673 12.109 5.94271 14.668 9.0121 14.668C11.5025 14.668 13.6089 12.9832 14.3034 10.666H9.15357C9.07544 10.666 9.0121 10.6011 9.0121 10.5211V7.47886C9.0121 7.39884 9.07544 7.33398 9.15357 7.33398H17.6589V7.33402Z" fill="#2196F3"/>
        <path d="M17.6585 7.33398H16.5976C16.6757 7.33398 16.739 7.39885 16.739 7.47886V8.99997C16.739 9.56929 16.6874 10.126 16.5884 10.666C15.8575 14.6675 12.5397 17.7365 8.48071 17.9837C8.63602 17.9931 8.79235 17.9986 8.94979 17.9997C13.2749 18.0303 16.8832 14.8604 17.6493 10.666C17.7484 10.126 17.8 9.56929 17.8 8.99997V7.47883C17.8 7.39885 17.7366 7.33398 17.6585 7.33398Z" fill="#1E88E5"/>
        <path d="M3.98457 6.62632L1.31555 4.65138C2.81292 1.87787 5.69834 0 9.01171 0C11.3864 0 13.5409 0.964758 15.1228 2.53188C15.1799 2.58845 15.1814 2.68168 15.1252 2.7392L13.0238 4.89115C12.9698 4.94645 12.8824 4.94817 12.8271 4.89424C11.8343 3.92625 10.4909 3.332 9.01171 3.332C6.78266 3.332 4.86126 4.68144 3.98457 6.62632Z" fill="#F44336"/>
        <path d="M3.21411 6.05622L3.98463 6.62635C4.78484 4.85117 6.45556 3.57268 8.43601 3.36297C8.45091 3.36132 8.46522 3.35931 8.48039 3.35784C8.30611 3.34089 8.12948 3.33203 7.95083 3.33203C5.9372 3.33203 4.18229 4.41917 3.21411 6.05622Z" fill="#E53935"/>
        <path d="M14.0619 2.53188C14.119 2.58845 14.1205 2.68168 14.0643 2.73923L12.3587 4.4859C12.5221 4.61317 12.6785 4.74929 12.8269 4.894C12.8824 4.94803 12.9698 4.94659 13.0239 4.89118L15.1252 2.73923C15.1814 2.68168 15.1799 2.58848 15.1228 2.53188C13.541 0.964758 11.3864 0 9.01176 0C8.83355 0 8.65676 0.00608203 8.4812 0.0168047C10.6453 0.148816 12.5987 1.08232 14.0619 2.53188Z" fill="#E53935"/>
        <path d="M15.4585 15.1164C13.8537 16.89 11.5592 18 9.01182 18C5.57116 18 2.59236 15.9751 1.14978 13.0252L3.87465 11.1129C4.69233 13.1965 6.68445 14.668 9.01182 14.668C10.4724 14.668 11.8007 14.0885 12.7895 13.1418L15.4585 15.1164Z" fill="#4CAF50"/>
        <path d="M3.87467 11.1129L3.07117 11.6768C4.0044 13.4572 5.8396 14.668 7.95087 14.668C8.12941 14.668 8.3059 14.659 8.48012 14.6421C6.38437 14.4375 4.62929 13.0359 3.87467 11.1129Z" fill="#43A047"/>
        <path d="M9.01181 18.0001C11.5592 18.0001 13.8537 16.89 15.4585 15.1165L14.8048 14.6328C13.2979 16.5534 11.0373 17.8275 8.48267 17.9837C8.65774 17.9944 8.83413 18.0001 9.01181 18.0001Z" fill="#43A047"/>
        <path d="M3.47711 8.99998C3.47711 9.74677 3.61821 10.4599 3.87461 11.1129L1.14971 13.0252C0.557017 11.8141 0.223511 10.4469 0.223511 8.99998C0.223511 7.42273 0.619599 5.94034 1.31559 4.65137L3.9846 6.6263C3.65889 7.3481 3.47711 8.15251 3.47711 8.99998Z" fill="#FFC107"/>
        <path d="M3.0711 11.6768L3.8746 11.1129C3.6182 10.4599 3.47711 9.74676 3.47711 8.99997C3.47711 8.15249 3.65888 7.34808 3.98459 6.62628L3.21408 6.05615C2.71373 6.90219 2.42334 7.89497 2.41627 8.96066C2.40975 9.94342 2.64754 10.8688 3.0711 11.6768Z" fill="#FFB300"/>
    </symbol>
    <symbol id="eye" viewBox="0 0 32 32">
        <path d="M16 6c-6.979 0-13.028 4.064-16 10 2.972 5.936 9.021 10 16 10s13.027-4.064 16-10c-2.972-5.936-9.021-10-16-10zM23.889 11.303c1.88 1.199 3.473 2.805 4.67 4.697-1.197 1.891-2.79 3.498-4.67 4.697-2.362 1.507-5.090 2.303-7.889 2.303s-5.527-0.796-7.889-2.303c-1.88-1.199-3.473-2.805-4.67-4.697 1.197-1.891 2.79-3.498 4.67-4.697 0.122-0.078 0.246-0.154 0.371-0.228-0.311 0.854-0.482 1.776-0.482 2.737 0 4.418 3.582 8 8 8s8-3.582 8-8c0-0.962-0.17-1.883-0.482-2.737 0.124 0.074 0.248 0.15 0.371 0.228v0zM16 13c0 1.657-1.343 3-3 3s-3-1.343-3-3 1.343-3 3-3 3 1.343 3 3z" fill="var(--main-color, grey)"></path>
    </symbol>
     <symbol id="closedEye" viewBox="0 0 32 32">
        <path d="M29.561 0.439c-0.586-0.586-1.535-0.586-2.121 0l-6.318 6.318c-1.623-0.492-3.342-0.757-5.122-0.757-6.979 0-13.028 4.064-16 10 1.285 2.566 3.145 4.782 5.407 6.472l-4.968 4.968c-0.586 0.586-0.586 1.535 0 2.121 0.293 0.293 0.677 0.439 1.061 0.439s0.768-0.146 1.061-0.439l27-27c0.586-0.586 0.586-1.536 0-2.121zM13 10c1.32 0 2.44 0.853 2.841 2.037l-3.804 3.804c-1.184-0.401-2.037-1.521-2.037-2.841 0-1.657 1.343-3 3-3zM3.441 16c1.197-1.891 2.79-3.498 4.67-4.697 0.122-0.078 0.246-0.154 0.371-0.228-0.311 0.854-0.482 1.776-0.482 2.737 0 1.715 0.54 3.304 1.459 4.607l-1.904 1.904c-1.639-1.151-3.038-2.621-4.114-4.323z" fill="var(--main-color, grey)"></path>
        <path d="M24 13.813c0-0.849-0.133-1.667-0.378-2.434l-10.056 10.056c0.768 0.245 1.586 0.378 2.435 0.378 4.418 0 8-3.582 8-8z" fill="var(--main-color,grey)"></path>
        <path d="M25.938 9.062l-2.168 2.168c0.040 0.025 0.079 0.049 0.118 0.074 1.88 1.199 3.473 2.805 4.67 4.697-1.197 1.891-2.79 3.498-4.67 4.697-2.362 1.507-5.090 2.303-7.889 2.303-1.208 0-2.403-0.149-3.561-0.439l-2.403 2.403c1.866 0.671 3.873 1.036 5.964 1.036 6.978 0 13.027-4.064 16-10-1.407-2.81-3.504-5.2-6.062-6.938z" fill="var(--main-color,grey)"></path>
    </symbol>
    <symbol id="chart" viewBox="0 0 24 24">
        <path d="M5 9.2H8V19H5V9.2ZM10.6 5H13.4V19H10.6V5ZM16.2 13H19V19H16.2V13Z" />
    </symbol>
    <symbol id="goBack" viewBox="0 0 18 12">
        <path d="M18 6H3.83l3.58-3.59L6 1 0 7l6 6 1.41-1.41L3.83 8H18V5Z" fill="var(--arrow-color, #FF751D)" />
    </symbol>
    <symbol id="calendar" viewBox="0 0 20 20">
        <path d="M17.4754 2.0669H16.1634V1.74585C16.1634 1.42226 15.9011 1.15991 15.5775 1.15991C15.2539 1.15991 14.9916 1.42226 14.9916 1.74585V2.0669H13.3747V1.74585C13.3747 1.42226 13.1123 1.15991 12.7887 1.15991C12.4652 1.15991 12.2028 1.42226 12.2028 1.74585V2.0669H10.5859V1.74585C10.5859 1.42226 10.3236 1.15991 10 1.15991C9.67641 1.15991 9.41406 1.42226 9.41406 1.74585V2.0669H7.79719V1.74585C7.79719 1.42226 7.53484 1.15991 7.21125 1.15991C6.88766 1.15991 6.62531 1.42226 6.62531 1.74585V2.0669H5.00844V1.74585C5.00844 1.42226 4.74609 1.15991 4.4225 1.15991C4.09891 1.15991 3.83656 1.42226 3.83656 1.74585V2.0669H2.52461C1.13254 2.0669 0 3.19944 0 4.59147V16.3155C0 17.7076 1.13254 18.8401 2.52461 18.8401H17.4754C18.8675 18.8401 20 17.7075 20 16.3155V4.59147C20 3.19944 18.8675 2.0669 17.4754 2.0669ZM18.8281 16.3155C18.8281 17.0614 18.2213 17.6682 17.4754 17.6682H2.52461C1.77871 17.6682 1.17188 17.0614 1.17188 16.3155V6.73233H18.8281V16.3155ZM18.8281 5.56046H1.17188V4.59147C1.17188 3.84562 1.77871 3.23878 2.52461 3.23878H3.83656V3.4653C3.83656 3.7889 4.09891 4.05124 4.4225 4.05124C4.74609 4.05124 5.00844 3.7889 5.00844 3.4653V3.23878H6.62531V3.4653C6.62531 3.7889 6.88766 4.05124 7.21125 4.05124C7.53484 4.05124 7.79719 3.7889 7.79719 3.4653V3.23878H9.41406V3.4653C9.41406 3.7889 9.67641 4.05124 10 4.05124C10.3236 4.05124 10.5859 3.7889 10.5859 3.4653V3.23878H12.2028V3.4653C12.2028 3.7889 12.4652 4.05124 12.7887 4.05124C13.1123 4.05124 13.3747 3.7889 13.3747 3.4653V3.23878H14.9916V3.4653C14.9916 3.7889 15.2539 4.05124 15.5775 4.05124C15.9011 4.05124 16.1634 3.7889 16.1634 3.4653V3.23878H17.4754C18.2213 3.23878 18.8281 3.84562 18.8281 4.59147V5.56046Z" fill="#52555F"/>
        <path d="M6.5318 7.98157H4.21973C3.89613 7.98157 3.63379 8.24391 3.63379 8.5675V10.9596C3.63379 11.2832 3.89613 11.5456 4.21973 11.5456H6.5318C6.85539 11.5456 7.11773 11.2832 7.11773 10.9596V8.5675C7.11773 8.24391 6.85543 7.98157 6.5318 7.98157ZM5.94586 10.3737H4.80566V9.15344H5.94586V10.3737Z" fill="#52555F"/>
        <path d="M11.1561 7.98157H8.84399C8.5204 7.98157 8.25806 8.24391 8.25806 8.5675V10.9596C8.25806 11.2832 8.5204 11.5456 8.84399 11.5456H11.1561C11.4797 11.5456 11.742 11.2832 11.742 10.9596V8.5675C11.742 8.24391 11.4797 7.98157 11.1561 7.98157ZM10.5701 10.3737H9.42993V9.15344H10.5701V10.3737Z" fill="#52555F"/>
        <path d="M15.7802 7.98157H13.4681C13.1445 7.98157 12.8822 8.24391 12.8822 8.5675V10.9596C12.8822 11.2832 13.1445 11.5456 13.4681 11.5456H15.7802C16.1038 11.5456 16.3661 11.2832 16.3661 10.9596V8.5675C16.3661 8.24391 16.1038 7.98157 15.7802 7.98157ZM15.1943 10.3737H14.0541V9.15344H15.1943V10.3737Z" fill="#52555F"/>
        <path d="M6.5318 12.5258H4.21973C3.89613 12.5258 3.63379 12.7881 3.63379 13.1117V15.5038C3.63379 15.8274 3.89613 16.0898 4.21973 16.0898H6.5318C6.85539 16.0898 7.11773 15.8274 7.11773 15.5038V13.1117C7.11773 12.7881 6.85543 12.5258 6.5318 12.5258ZM5.94586 14.9179H4.80566V13.6977H5.94586V14.9179Z" fill="#52555F"/>
        <path d="M11.1561 12.5258H8.84399C8.5204 12.5258 8.25806 12.7881 8.25806 13.1117V15.5038C8.25806 15.8274 8.5204 16.0898 8.84399 16.0898H11.1561C11.4797 16.0898 11.742 15.8274 11.742 15.5038V13.1117C11.742 12.7881 11.4797 12.5258 11.1561 12.5258ZM10.5701 14.9179H9.42993V13.6977H10.5701V14.9179Z" fill="#52555F"/>
        <path d="M15.7802 12.5258H13.4681C13.1445 12.5258 12.8822 12.7881 12.8822 13.1117V15.5038C12.8822 15.8274 13.1445 16.0898 13.4681 16.0898H15.7802C16.1038 16.0898 16.3661 15.8274 16.3661 15.5038V13.1117C16.3661 12.7881 16.1038 12.5258 15.7802 12.5258ZM15.1943 14.9179H14.0541V13.6977H15.1943V14.9179Z" fill="#52555F"/>
    </symbol>
    <symbol id="calculator" viewBox="0 0 20 20">
        <path d="M17.0312 0H2.96875C1.99949 0 1.21094 0.788555 1.21094 1.75781V18.2422C1.21094 19.2114 1.99949 20 2.96875 20H17.0312C18.0005 20 18.7891 19.2114 18.7891 18.2422V1.75781C18.7891 0.788555 18.0005 0 17.0312 0ZM17.6172 18.2422C17.6172 18.5653 17.3543 18.8281 17.0312 18.8281H2.96875C2.64566 18.8281 2.38281 18.5653 2.38281 18.2422V1.75781C2.38281 1.43473 2.64566 1.17188 2.96875 1.17188H17.0312C17.3543 1.17188 17.6172 1.43473 17.6172 1.75781V18.2422Z" fill="#52555F"/>
        <path d="M15.8594 2.34375H4.14062C3.81703 2.34375 3.55469 2.60609 3.55469 2.92969V7.69531C3.55469 8.01891 3.81703 8.28125 4.14062 8.28125H15.8594C16.183 8.28125 16.4453 8.01891 16.4453 7.69531V2.92969C16.4453 2.60609 16.183 2.34375 15.8594 2.34375ZM15.2734 7.10938H4.72656V3.51562H15.2734V7.10938Z" fill="#52555F"/>
        <path d="M6.48438 9.45312H4.14062C3.81703 9.45312 3.55469 9.71547 3.55469 10.0391V12.3828C3.55469 12.7064 3.81703 12.9688 4.14062 12.9688H6.48438C6.80797 12.9688 7.07031 12.7064 7.07031 12.3828V10.0391C7.07031 9.71547 6.80797 9.45312 6.48438 9.45312ZM5.89844 11.7969H4.72656V10.625H5.89844V11.7969Z" fill="#52555F"/>
        <path d="M6.48438 14.1406H4.14062C3.81703 14.1406 3.55469 14.403 3.55469 14.7266V17.0703C3.55469 17.3939 3.81703 17.6562 4.14062 17.6562H6.48438C6.80797 17.6562 7.07031 17.3939 7.07031 17.0703V14.7266C7.07031 14.403 6.80797 14.1406 6.48438 14.1406ZM5.89844 16.4844H4.72656V15.3125H5.89844V16.4844Z" fill="#52555F"/>
        <path d="M11.1719 9.45312H8.82812C8.50453 9.45312 8.24219 9.71547 8.24219 10.0391V12.3828C8.24219 12.7064 8.50453 12.9688 8.82812 12.9688H11.1719C11.4955 12.9688 11.7578 12.7064 11.7578 12.3828V10.0391C11.7578 9.71547 11.4955 9.45312 11.1719 9.45312ZM10.5859 11.7969H9.41406V10.625H10.5859V11.7969Z" fill="#52555F"/>
        <path d="M11.1719 14.1406H8.82812C8.50453 14.1406 8.24219 14.403 8.24219 14.7266V17.0703C8.24219 17.3939 8.50453 17.6562 8.82812 17.6562H11.1719C11.4955 17.6562 11.7578 17.3939 11.7578 17.0703V14.7266C11.7578 14.403 11.4955 14.1406 11.1719 14.1406ZM10.5859 16.4844H9.41406V15.3125H10.5859V16.4844Z" fill="#52555F"/>
        <path d="M15.8594 9.45312H13.5156C13.192 9.45312 12.9297 9.71547 12.9297 10.0391V17.0703C12.9297 17.3939 13.192 17.6562 13.5156 17.6562H15.8594C16.183 17.6562 16.4453 17.3939 16.4453 17.0703V10.0391C16.4453 9.71547 16.183 9.45312 15.8594 9.45312ZM15.2734 16.4844H14.1016V10.625H15.2734V16.4844Z" fill="#52555F"/>
    </symbol>
    <symbol id="arrowDown" width="12" height="7" fill="none" viewBox="0 0 12 7">
        <path d="M1 1L6 5L11 1" stroke="#C7CCDC" stroke-width="2"/>
    </symbol>
    <symbol id="arrowUp" width="12" height="7" fill="none" viewBox="0 0 12 7">
        <path d="M1 5L5 1L11 5" stroke="#C7CCDC" stroke-width="2"/>
    </symbol>
    <symbol id="basket" fill="none" viewBox="0 0 18 18">
        <path d="M16.308 4.02333L15.9106 2.832C15.7592 2.37827 15.3361 2.07339 14.8579 2.07339H11.5177V0.985886C11.5177 0.442337 11.0758 0 10.5324 0H7.47348C6.93021 0 6.48815 0.442337 6.48815 0.985886V2.07339H3.14803C2.66971 2.07339 2.2466 2.37827 2.09526 2.832L1.69783 4.02333C1.60733 4.29456 1.6532 4.59489 1.82033 4.82684C1.98746 5.05879 2.25786 5.19736 2.54378 5.19736H2.9592L3.87354 16.5038C3.94152 17.3427 4.65343 18 5.49457 18H12.6968C13.5378 18 14.2499 17.3427 14.3177 16.5037L15.232 5.19736H15.4621C15.748 5.19736 16.0184 5.05879 16.1855 4.82698C16.3526 4.59503 16.3985 4.29456 16.308 4.02333ZM7.54284 1.05469H10.463V2.07339H7.54284V1.05469ZM13.2664 16.4187C13.2425 16.7141 12.9923 16.9453 12.6968 16.9453H5.49457C5.19904 16.9453 4.94883 16.7141 4.92493 16.4187L4.01732 5.19736H14.1739L13.2664 16.4187ZM2.76996 4.14267L3.09584 3.16571C3.10326 3.14319 3.12427 3.12808 3.14803 3.12808H14.8579C14.8817 3.12808 14.9026 3.14319 14.9101 3.16571L15.236 4.14267H2.76996Z" fill="var(--basket-color, #52555F)"/>
        <path d="M11.5845 16.3811C11.5938 16.3816 11.6031 16.3818 11.6124 16.3818C11.891 16.3818 12.1239 16.1634 12.1385 15.8819L12.6337 6.37568C12.6488 6.08482 12.4252 5.83667 12.1345 5.82156C11.843 5.80604 11.5956 6.02989 11.5804 6.32075L11.0853 15.827C11.0702 16.1178 11.2936 16.366 11.5845 16.3811Z" fill="var(--basket-color, #52555F)"/>
        <path d="M5.89105 15.8835C5.90643 16.1646 6.13906 16.3821 6.41715 16.3821C6.42677 16.3821 6.43665 16.3819 6.4464 16.3813C6.73713 16.3655 6.96001 16.117 6.94422 15.8261L6.42553 6.31991C6.40974 6.02905 6.16117 5.80616 5.87031 5.82209C5.57959 5.83789 5.3567 6.08645 5.37249 6.37731L5.89105 15.8835Z" fill="var(--basket-color, #52555F)"/>
        <path d="M9.00891 16.3822C9.30019 16.3822 9.53625 16.1461 9.53625 15.8548V6.34863C9.53625 6.05736 9.30019 5.82129 9.00891 5.82129C8.71764 5.82129 8.48157 6.05736 8.48157 6.34863V15.8548C8.48157 16.1461 8.71764 16.3822 9.00891 16.3822Z" fill="var(--basket-color, #52555F)"/>
    </symbol>
    <symbol id="arrowLeft" fill="none" viewBox="0 0 7 17">
        <path d="M6 6L2 11L6 16" stroke="#FF751D" stroke-width="2"/>
    </symbol>
    <symbol id="arrowRight" fill="none" viewBox="0 0 7 17">
        <path d="M1 6L5 11L1 16" stroke="#FF751D" stroke-width="2"/>
    </symbol>
    <symbol id="products" fill="none" viewBox="0 0 56 56">
        <rect y="10" width="56" height="46" rx="20" style="fill: var(--icon-bg-color, #F5F6FB)"/>
        <path style="fill: var(--icon-color, #071f41)" d="M22.4633 21.1923C21.9894 20.6114 21.3148 20.2712 20.6124 20.259C19.1997 20.2387 18.031 21.5002 18.007 23.0812C17.9993 23.5909 18.362 24.011 18.8169 24.0196C18.8218 24.0197 18.8264 24.0197 18.8312 24.0197C19.2798 24.0197 19.6472 23.6167 19.6547 23.1124C19.6632 22.5477 20.0776 22.0946 20.5866 22.1045C20.8407 22.1089 21.075 22.227 21.2465 22.4372C21.5535 22.8136 22.0748 22.8399 22.4106 22.4961C22.7466 22.1525 22.7702 21.5686 22.4633 21.1923Z"/>
        <path style="fill: var(--icon-color, #071f41)" d="M26.8471 24.2001C26.5945 23.5352 26.1029 23.0104 25.4979 22.7602C24.2812 22.2576 22.925 22.9561 22.4742 24.3171C22.3159 24.7951 22.5336 25.3261 22.9601 25.5034C23.0546 25.5427 23.1514 25.5613 23.2466 25.5613C23.5813 25.5613 23.896 25.3312 24.0192 24.9591C24.1546 24.5503 24.5625 24.3411 24.9272 24.4919C25.1106 24.5677 25.2539 24.7206 25.3304 24.9224C25.5085 25.3913 25.9926 25.6101 26.4112 25.4105C26.8301 25.2111 27.0251 24.6692 26.8471 24.2001Z"/>
        <path style="fill: var(--icon-color, #071f41)" d="M32.1576 16.027C31.8355 15.6668 31.3138 15.6676 30.9924 16.0283L30.2157 16.9C29.8943 17.2608 29.8948 17.8451 30.2169 18.205C30.3776 18.3848 30.5883 18.4746 30.7989 18.4746C31.01 18.4746 31.2212 18.3843 31.3821 18.2037L32.1589 17.332C32.4803 16.9713 32.4798 16.3869 32.1576 16.027Z"/>
        <path style="fill: var(--icon-color, #071f41)" d="M27.0314 27.9404H25.9332C25.478 27.9404 25.1092 28.3536 25.1092 28.8633C25.1092 29.3729 25.478 29.7861 25.9332 29.7861H27.0314C27.4865 29.7861 27.8553 29.3729 27.8553 28.8633C27.8553 28.3536 27.4865 27.9404 27.0314 27.9404Z"/>
        <path style="fill: var(--icon-color, #071f41)" d="M35.4518 27.9404H34.3535C33.8983 27.9404 33.5295 28.3536 33.5295 28.8633C33.5295 29.3729 33.8984 29.7861 34.3535 29.7861H35.4518C35.9068 29.7861 36.2757 29.3729 36.2757 28.8633C36.2757 28.3536 35.9068 27.9404 35.4518 27.9404Z"/>
        <path style="fill: var(--icon-color, #071f41)" d="M55.6884 44.229L55.4786 42.9421C55.3449 42.1198 54.713 41.5229 53.9762 41.5229C53.8837 41.5229 53.7905 41.5326 53.6988 41.5517L49.4277 42.4434L51.3619 40.9739C51.8688 40.5889 52.125 39.9002 52.0145 39.2169C51.9838 39.0298 51.9262 38.8502 51.8428 38.6821L51.2575 37.5042C51.0569 37.0995 50.7149 36.7988 50.3201 36.6797C50.1268 36.6211 49.9246 36.608 49.7274 36.6372C49.9428 35.2863 50.0538 33.9066 50.0538 32.5021C50.0538 31.8789 49.7241 31.3426 49.253 31.1044C49.8685 29.4407 49.9105 27.5361 49.3021 25.7919C49.2528 25.65 49.1795 25.5234 49.0847 25.4155C48.9906 25.3086 48.8805 25.2259 48.7555 25.1689C48.0265 24.8389 47.2602 24.6717 46.4781 24.6717C46.3781 24.6717 46.2785 24.6746 46.1793 24.68C46.0676 22.1246 44.2066 20.0845 41.9346 20.0845C41.6354 20.0845 41.3437 20.1207 41.0619 20.1881C41.2576 18.8574 41.1424 17.4654 40.6864 16.1584C40.6374 16.0148 40.5638 15.8858 40.4638 15.7704C40.3675 15.661 40.2546 15.5766 40.1294 15.5201C39.344 15.1646 38.5186 14.9844 37.676 14.9844C36.4067 14.9844 35.1925 15.39 34.1443 16.1439C33.7613 14.8832 33.1298 13.6997 32.2474 12.6946C31.989 12.4004 31.6452 12.2383 31.2795 12.2383C30.9137 12.2383 30.5699 12.4004 30.3112 12.6949L26.4104 17.138C25.6885 16.4063 24.7386 15.9689 23.7075 15.9689C23.4736 15.9689 23.2374 15.9922 23.0054 16.0381C22.1651 16.2043 21.3917 16.6718 20.7989 17.3564C20.0387 16.9395 19.1678 16.7973 18.3309 16.9628C18.1468 16.9992 17.9681 17.0505 17.7947 17.113V13.6892C17.7947 11.3314 16.1272 9.40979 14.0645 9.36926V7.42751C14.696 7.30336 15.1781 6.67796 15.1781 5.92548V1.52596C15.1781 0.684606 14.5757 0 13.8353 0H7.28355C6.54309 0 5.94078 0.684606 5.94078 1.52596V5.92548C5.94078 6.67796 6.42289 7.30336 7.05431 7.42751V9.36902C4.9916 9.40943 3.32421 11.331 3.32421 13.6889V40.411C1.71568 42.0619 0.714294 44.3654 0.714294 46.9126C0.714294 51.9234 4.58415 56 9.34099 56L41.5875 55.9893C42.6882 55.9888 43.7233 55.4391 44.4273 54.4812C45.1131 53.5488 45.4045 52.3377 45.2366 51.1433L51.6773 52.4587C51.7665 52.4769 51.8578 52.4861 51.9483 52.4861C52.2695 52.4861 52.5773 52.3741 52.8379 52.1624C53.1729 51.8904 53.3997 51.4694 53.4602 51.0076L53.6346 49.6773C53.6598 49.4867 53.657 49.2948 53.6264 49.1067C53.5155 48.4265 53.0597 47.8868 52.4651 47.732L50.195 47.1402L54.4619 46.2494C54.8643 46.1654 55.2134 45.9087 55.445 45.5264C55.6762 45.1452 55.7625 44.6845 55.6884 44.229ZM46.4781 26.5026C46.9631 26.5026 47.44 26.5899 47.8984 26.7619C48.3081 28.1797 48.1547 29.709 47.5132 30.9722H45.3429L46.0354 30.1833C46.3497 29.8254 46.3491 29.2457 46.034 28.8885C45.719 28.5313 45.2088 28.5319 44.8947 28.8899L44.5283 29.3073C44.3565 28.6646 44.0566 28.0891 43.6624 27.617C44.462 26.8955 45.4436 26.5026 46.4781 26.5026ZM41.9346 21.9155C43.3896 21.9155 44.5733 23.2646 44.5733 24.9231C44.5733 24.9538 44.572 24.9842 44.5713 25.0147C43.722 25.3286 42.9392 25.8529 42.2716 26.565C42.1653 26.5192 42.0576 26.4767 41.947 26.4419C41.7113 24.9951 40.8533 23.8354 39.7199 23.2937C40.1903 22.4655 41.0065 21.9155 41.9346 21.9155ZM37.6759 16.8153C38.2231 16.8153 38.7608 16.9159 39.279 17.1149C39.6955 18.5222 39.6104 20.0339 39.0798 21.3433C38.6435 21.7948 38.2896 22.3478 38.0477 22.9695C37.9038 22.979 37.76 22.9971 37.6179 23.0251C36.9866 23.15 36.3979 23.4613 35.9052 23.9128C35.7372 23.5636 35.5315 23.2415 35.2959 22.9514L37.1434 20.847C37.4577 20.4891 37.4571 19.9094 37.142 19.5523C36.827 19.1951 36.3169 19.1957 36.0026 19.5538L33.9833 21.8538C33.599 21.6474 33.1837 21.5038 32.7473 21.4367C32.9358 20.3441 33.4023 19.3146 34.124 18.4925C35.0735 17.4109 36.3349 16.8153 37.6759 16.8153ZM31.5024 30.9722H30.804C30.6864 30.6321 30.3956 30.391 30.0545 30.391C29.7135 30.391 29.4227 30.6322 29.3051 30.9722H28.4835C28.6743 30.6192 28.6357 30.1514 28.3664 29.8459C28.0515 29.4887 27.5413 29.4893 27.227 29.8473L26.4676 30.7121C26.3994 30.7897 26.347 30.8782 26.3084 30.9722H24.6686C24.0545 29.9012 23.6797 28.6371 23.6354 27.2772H36.417C36.3726 28.6371 35.9978 29.9012 35.3837 30.9722H33.6773C33.6389 30.8782 33.5862 30.7896 33.5181 30.7119L32.7589 29.8471C32.4445 29.4893 31.9345 29.4884 31.6196 29.8457C31.35 30.1511 31.3115 30.619 31.5024 30.9722ZM29.6286 25.446C29.9323 24.167 30.9589 23.2233 32.1756 23.2233C33.3923 23.2233 34.419 24.1672 34.7226 25.446H29.6286ZM31.2761 14.188C32.0425 15.1292 32.5492 16.2467 32.7977 17.4213C32.3863 17.9293 32.0446 18.4906 31.7751 19.0879C31.6528 19.0027 31.5093 18.9528 31.3554 18.9528H30.2818C29.8369 18.9528 29.4762 19.3627 29.4762 19.8683C29.4762 20.374 29.8369 20.7839 30.2818 20.7839H31.2236C31.1707 21.0367 31.1295 21.2926 31.0996 21.5504C30.7797 21.6459 30.4742 21.7819 30.1883 21.955C29.6513 20.9019 28.762 20.117 27.7085 19.8022C27.7081 19.7996 27.7077 19.7971 27.7073 19.7945C27.6441 19.3802 27.5339 18.9871 27.3836 18.6217L31.2761 14.188ZM16.7121 22.4497C16.6649 22.2995 16.6291 22.1454 16.6056 21.9909C16.3745 20.477 17.2726 19.0307 18.6071 18.7666C18.7478 18.7388 18.8908 18.7246 19.0319 18.7246C19.5627 18.7246 20.0699 18.917 20.4986 19.2809C20.676 19.4316 20.9003 19.4925 21.1186 19.4495C21.3369 19.4064 21.5299 19.2632 21.6524 19.0534C22.0306 18.405 22.6093 17.9748 23.2817 17.8418C23.4228 17.8138 23.5661 17.7998 23.7075 17.7998C24.9012 17.7998 25.9157 18.7703 26.1196 20.1076C26.143 20.2608 26.155 20.4205 26.1552 20.5823C26.156 21.0562 26.4749 21.4512 26.8904 21.4927C27.7912 21.5827 28.5579 22.2269 28.9134 23.1344C28.4375 23.7835 28.1076 24.576 27.9824 25.446H23.3877C22.8165 25.446 22.3263 25.8468 22.1219 26.414C21.1111 25.6316 19.9198 25.2101 18.6713 25.2101C17.8892 25.2101 17.1229 25.3774 16.3933 25.7075C16.2696 25.7637 16.1589 25.8466 16.0646 25.9538C15.969 26.0624 15.8956 26.1897 15.8475 26.3294C15.6621 26.8608 15.5385 27.4071 15.4716 27.9568C15.1829 27.5832 14.9794 27.1187 14.8999 26.5975C14.7105 25.3552 15.2827 24.1183 16.2911 23.5895C16.67 23.3907 16.8528 22.8961 16.7121 22.4497ZM19.1139 30.7218L19.3337 30.9722H17.3987C16.9643 29.8269 16.8983 28.5232 17.251 27.3005C17.7101 27.1283 18.1867 27.0411 18.6713 27.0411C19.8853 27.0411 21.0273 27.5803 21.8867 28.5592C22.001 28.6895 22.1075 28.826 22.2075 28.967C22.344 29.6694 22.5538 30.3405 22.8241 30.9721H21.6099L20.2546 29.4283C19.9402 29.0705 19.43 29.0695 19.1153 29.4268C18.8002 29.7842 18.7996 30.3639 19.1139 30.7218ZM15.6828 30.9722H12.8107C12.9388 30.0853 13.4082 29.3293 14.0598 28.8835C14.4456 29.4708 14.949 29.9457 15.5291 30.2673C15.5701 30.5049 15.6205 30.7404 15.6828 30.9722ZM7.5521 1.83115H13.5667V5.62029H7.5521V1.83115ZM12.4532 7.45144V9.36719H8.66574V7.45144H12.4532ZM4.93564 17.402H10.1674C10.6124 17.402 10.973 16.9921 10.973 16.4865C10.973 15.9808 10.6124 15.5709 10.1674 15.5709H4.93564V13.6889C4.93564 12.3156 5.91575 11.1983 7.12048 11.1983H13.9985C15.2033 11.1983 16.1834 12.3156 16.1834 13.6889V15.5709H14.6791C14.234 15.5709 13.8734 15.9808 13.8734 16.4865C13.8734 16.9921 14.234 17.402 14.6791 17.402H16.1834V18.2147C15.2603 19.2432 14.7809 20.7515 15.0177 22.3029C15.0181 22.306 15.0186 22.3092 15.0191 22.3123C13.7266 23.3201 13.0379 25.1117 13.3121 26.9102C13.3282 27.0152 13.3482 27.1185 13.3702 27.2207C12.9676 27.4729 12.6062 27.7986 12.2964 28.1797H4.93564V17.402ZM4.93553 30.0107H11.3608C11.2753 30.3193 11.215 30.6405 11.1855 30.9722H11.0497C10.3082 30.9722 9.70483 31.6584 9.70483 32.5018C9.70483 33.9556 9.82374 35.3828 10.0542 36.7791C9.82267 36.758 9.58527 36.7467 9.34378 36.7467C8.36947 36.7467 7.44114 36.9223 6.73011 37.2415C5.64247 37.7295 5.3418 38.4225 5.27616 38.9021C5.1609 38.9672 5.04768 39.0361 4.93553 39.1065V30.0107ZM15.1375 41.2583C15.4276 41.5221 15.605 41.7463 15.7078 41.9081C15.6981 41.9082 15.688 41.9083 15.6778 41.9083C15.2218 41.9083 14.4025 41.6994 13.4708 41.1134C13.1239 40.895 12.8044 40.6482 12.5466 40.4001C12.246 40.1106 11.8052 40.1109 11.5049 40.4002C11.2471 40.6486 10.9276 40.8952 10.5811 41.1131C9.64918 41.6994 8.82988 41.9083 8.37398 41.9083C8.36356 41.9083 8.35357 41.9082 8.3438 41.9081C8.44649 41.7463 8.62385 41.5219 8.9141 41.258C9.16772 41.0273 9.27461 40.6459 9.18512 40.291C9.09553 39.936 8.82719 39.6769 8.50439 39.6339C7.71818 39.5292 7.22103 39.3017 6.98825 39.1362C7.2799 38.9298 8.01724 38.5778 9.34411 38.5778C10.443 38.5778 11.2462 38.8404 11.6314 39.0863C11.8765 39.2425 12.1752 39.2425 12.4202 39.0864C12.8057 38.8405 13.609 38.5779 14.7079 38.5779C16.0349 38.5779 16.7721 38.93 17.0636 39.1363C16.831 39.302 16.3337 39.5293 15.5473 39.634C15.2245 39.6771 14.956 39.9362 14.8665 40.2913C14.7767 40.6463 14.8836 41.0277 15.1375 41.2583ZM13.5258 52.4022L13.5535 52.5718C13.6493 53.1599 13.8514 53.6996 14.1337 54.1688H9.34099C5.47274 54.1688 2.32562 50.9138 2.32562 46.9126C2.32562 44.1782 3.796 41.7933 5.96119 40.5567C6.20987 40.7676 6.51989 40.9495 6.8877 41.0963C6.74182 41.3794 6.6402 41.6838 6.61625 42.0013C6.58445 42.4235 6.6981 42.8244 6.93658 43.1303C7.25164 43.5346 7.73526 43.7396 8.37398 43.7396C9.22519 43.7396 10.3421 43.3566 11.3615 42.7152C11.5962 42.5677 11.8181 42.4118 12.0259 42.2489C12.2335 42.4116 12.4555 42.5675 12.6903 42.7154C13.7097 43.3566 14.8266 43.7395 15.6778 43.7396H15.6779C16.3164 43.7396 16.8 43.5346 17.115 43.1304C17.3536 42.8245 17.4673 42.4236 17.4354 42.0013C17.4115 41.6838 17.3098 41.3794 17.164 41.0963C17.5318 40.9494 17.8419 40.7675 18.0906 40.5567C19.8077 41.5374 21.0872 43.2405 21.5434 45.2674L15.8453 47.7274C14.1773 48.4476 13.2018 50.4135 13.5258 52.4022ZM43.1907 53.3072C42.7934 53.8478 42.2087 54.1579 41.5868 54.1581L40.7412 54.1585L40.2129 50.9167C40.1317 50.4195 39.7116 50.0908 39.2739 50.1832C38.8365 50.2752 38.5474 50.7529 38.6284 51.2501L39.1025 54.1591L36.3304 54.1603L35.9733 51.9682C35.8921 51.471 35.4719 51.1426 35.0343 51.2346C34.5969 51.3267 34.3078 51.8043 34.3888 52.3016L34.6917 54.161L28.2437 54.1638L27.7584 51.1866C27.6772 50.6894 27.2572 50.361 26.8194 50.4532C26.3819 50.5452 26.0929 51.0231 26.1739 51.5203L26.605 54.1646L17.1902 54.1687C17.19 54.1687 17.1897 54.1687 17.1895 54.1687C16.1828 54.1687 15.32 53.3569 15.1376 52.238L15.1098 52.0683C14.9278 50.9505 15.4776 49.8449 16.4172 49.4391L19.5836 48.0721L19.8195 49.5189C19.8914 49.9598 20.23 50.2679 20.6107 50.2679C20.6595 50.2679 20.7089 50.2628 20.7585 50.2524C21.1959 50.1602 21.4849 49.6825 21.4038 49.1853L21.1145 47.4112L25.8147 45.382C26.2307 45.2024 26.4398 44.6736 26.2818 44.2009C26.1238 43.7281 25.6579 43.4906 25.2426 43.6701L23.0554 44.6144C22.4418 42.1456 20.8655 40.0834 18.7752 38.9019C18.7095 38.4224 18.4089 37.7294 17.3213 37.2413C16.6103 36.9222 15.682 36.7466 14.7077 36.7466C14.0371 36.7466 13.3968 36.8307 12.8315 36.9839V36.4309C12.8315 35.9252 12.4709 35.5153 12.0259 35.5153C11.8378 35.5153 11.6653 35.589 11.5281 35.7118C11.401 34.7568 11.3299 33.7868 11.3181 32.8031H37.5599C38.0049 32.8031 38.3655 32.3932 38.3655 31.8875C38.3655 31.3819 38.0049 30.972 37.5599 30.972H37.2302C37.7432 29.7712 38.0331 28.4249 38.0331 27.0021C38.0331 26.1944 37.4892 25.5289 36.7961 25.4534C37.0978 25.13 37.4745 24.9119 37.8943 24.8288C38.0173 24.8045 38.1421 24.7922 38.2654 24.7922C39.3056 24.7922 40.1894 25.6378 40.367 26.8027C40.3875 26.9376 40.398 27.0767 40.3982 27.2165C40.3987 27.6907 40.7177 28.0859 41.1333 28.1275C42.0962 28.2235 42.8839 29.0464 43.049 30.1285C43.0928 30.4163 43.0873 30.7002 43.0434 30.972H42.179C41.7339 30.972 41.3733 31.3819 41.3733 31.8875C41.3733 32.3932 41.7339 32.8031 42.179 32.8031H48.4408C48.4208 34.4826 48.2305 36.1232 47.8754 37.715L43.5092 40.6441C43.2421 39.5879 42.6215 38.692 41.7663 38.148C40.8071 37.538 39.6673 37.4426 38.6392 37.8864L29.6469 41.7687C29.2308 41.9482 29.0218 42.4771 29.1798 42.9498C29.3378 43.4226 29.8036 43.6599 30.219 43.4805L31.4036 42.9692L31.7715 45.226C31.8433 45.6668 32.1819 45.9751 32.5627 45.9751C32.6114 45.9751 32.6608 45.9699 32.7104 45.9596C33.1478 45.8675 33.4369 45.3898 33.3559 44.8926L32.9347 42.3082L39.2113 39.5985C39.7928 39.3475 40.4371 39.4014 40.9793 39.7462C41.5205 40.0904 41.8954 40.6836 42.008 41.3736L43.6379 51.3735C43.7502 52.0632 43.5873 52.7679 43.1907 53.3072ZM46.0653 46.1406C45.6894 46.2191 45.4139 46.5868 45.4054 47.021C45.397 47.4552 45.6583 47.8364 46.0307 47.9334L52.0291 49.497L51.8793 50.6395L44.9254 49.2194L43.8384 42.5498L49.8953 38.4866L50.3998 39.5019L45.2911 43.3829C44.9735 43.6242 44.8486 44.0859 44.9924 44.4883C45.136 44.8907 45.5087 45.1231 45.8845 45.0446L53.9095 43.3693L54.0883 44.4656L46.0653 46.1406Z"/>
         </symbol>
    <symbol id="alcohol" fill="none" viewBox="0 0 56 56">
        <rect y="10" width="56" height="46" rx="20" style="fill: var(--icon-bg-color, #F5F6FB)"/>
        <path style="fill: var(--icon-color, #071f41)" d="M13.5353 4.72461C13.0764 4.72461 12.7043 5.09659 12.7043 5.55553V5.90706C12.7043 6.36589 13.0763 6.73798 13.5353 6.73798C13.9941 6.73798 14.3662 6.366 14.3662 5.90706V5.55553C14.3661 5.09659 13.9941 4.72461 13.5353 4.72461Z"/>
        <path style="fill: var(--icon-color, #071f41)" d="M11.1192 7.4917H10.7678C10.309 7.4917 9.93689 7.86368 9.93689 8.32262C9.93689 8.78145 10.3089 9.15354 10.7678 9.15354H11.1192C11.5781 9.15354 11.9502 8.78156 11.9502 8.32262C11.9502 7.86379 11.5782 7.4917 11.1192 7.4917Z"/>
        <path style="fill: var(--icon-color, #071f41)" d="M12.4144 6.02695L12.1657 5.77845C11.8413 5.45404 11.3151 5.45404 10.9907 5.77856C10.6663 6.10307 10.6663 6.62917 10.9908 6.95357L11.2394 7.20207C11.4016 7.36428 11.6143 7.44543 11.8269 7.44543C12.0395 7.44543 12.2523 7.36428 12.4145 7.20196C12.7389 6.87745 12.7389 6.35135 12.4144 6.02695Z"/>
        <path style="fill: var(--icon-color, #071f41)" d="M12.4144 9.44358C12.0899 9.11907 11.5638 9.11907 11.2393 9.44358L10.9907 9.69219C10.6662 10.0166 10.6662 10.5428 10.9907 10.8672C11.1529 11.0294 11.3655 11.1106 11.5783 11.1106C11.7909 11.1106 12.0035 11.0294 12.1658 10.8672L12.4144 10.6186C12.739 10.2942 12.739 9.76799 12.4144 9.44358Z"/>
        <path style="fill: var(--icon-color, #071f41)" d="M49.7966 6.85344H21.7263C21.4095 5.07598 20.5219 3.44805 19.1799 2.20795C17.6392 0.784109 15.6344 0 13.5353 0C8.94603 0 5.2124 3.73363 5.2124 8.32289C5.2124 12.9122 8.94603 16.6458 13.5353 16.6458C14.3779 16.6458 15.2059 16.5178 16.0049 16.269C17.2569 17.4502 18.8082 18.3339 20.5601 18.7895C21.6919 19.0839 22.5518 20.0179 22.7506 21.1692L23.8067 27.2869C24.1799 29.4483 25.3826 31.322 27.1934 32.5629C28.5664 33.5037 29.386 35.0378 29.386 36.6667V49.1358C28.7525 49.5373 28.3467 50.243 28.3467 51.0216C28.3467 51.0453 28.3471 51.0689 28.3478 51.0926C26.2718 51.5169 24.5618 51.9077 23.2638 52.2545C22.3795 52.4907 21.7124 52.6991 21.2242 52.8915C20.7695 53.0707 19.9229 53.4044 19.9229 54.1789C19.9229 55.2196 21.276 55.3972 22.3632 55.5401C23.2972 55.6628 24.5912 55.765 26.2093 55.844C28.9428 55.9776 31.712 55.9998 31.7397 56C31.7417 56 31.7438 56 31.7459 56C31.748 56 31.7502 56 31.7521 56C31.7798 55.9998 34.549 55.9775 37.2825 55.844C38.9006 55.765 40.1946 55.6628 41.1286 55.5401C42.2158 55.3972 43.5689 55.2196 43.5689 54.1789C43.5689 53.3558 42.8098 52.9312 40.0374 52.2039C38.3574 51.7632 36.2644 51.3183 34.7613 51.0147C34.7595 50.4148 34.521 49.8541 34.1058 49.4417V36.6665C34.1058 35.0377 34.9255 33.5036 36.2985 32.5628C38.1092 31.3219 39.3119 29.4482 39.6851 27.2868L40.7412 21.1691C40.94 20.0178 41.7998 19.0837 42.9317 18.7894C46.7271 17.8024 49.5817 14.8092 50.4845 11.1234C50.488 11.1092 50.4917 11.0952 50.4945 11.0808C50.6852 10.2879 50.7875 9.464 50.7875 8.62061V7.84459C50.7876 7.29805 50.343 6.85344 49.7966 6.85344ZM13.5353 14.9839C9.86237 14.9839 6.87425 11.9958 6.87425 8.32289C6.87425 4.64997 9.86237 1.66184 13.5353 1.66184C15.2152 1.66184 16.8193 2.28922 18.0522 3.42847C19.0525 4.3528 19.737 5.54575 20.0313 6.85344H19.1802C18.5225 4.31988 16.214 2.48828 13.5353 2.48828C10.318 2.48828 7.70068 5.10573 7.70068 8.32289C7.70068 11.54 10.3181 14.1575 13.5353 14.1575C13.7748 14.1575 14.0149 14.1413 14.254 14.1115C14.4135 14.3717 14.5842 14.6244 14.7654 14.8695C14.3616 14.9454 13.9506 14.9839 13.5353 14.9839ZM16.0797 5.7785C15.7553 5.45409 15.2291 5.45409 14.9047 5.7785L14.6562 6.027C14.4324 6.25067 14.363 6.57027 14.4478 6.85344H13.6955C13.149 6.85344 12.7044 7.29805 12.7044 7.84459V8.62061C12.7044 9.46378 12.8066 10.2875 12.9973 11.0801C13.0002 11.0955 13.0042 11.1105 13.0079 11.1256C13.1226 11.5935 13.2678 12.0506 13.4434 12.4935C11.1849 12.4443 9.36242 10.593 9.36242 8.32289C9.36242 6.02197 11.2344 4.15002 13.5353 4.15002C15.3006 4.15002 16.8416 5.2617 17.4406 6.85344H16.1639C16.4002 6.52848 16.3727 6.07152 16.0797 5.7785ZM34.3099 52.6189C37.2309 53.2067 39.0648 53.6522 40.2126 53.974C38.1135 54.1802 34.7462 54.3152 31.746 54.3382C28.7465 54.3152 25.3795 54.1802 23.2803 53.9742C24.3781 53.6663 26.103 53.2454 28.8063 52.6949C29.5541 52.5428 30.0718 51.8425 30.0104 51.0666C30.0092 51.0518 30.0086 51.0367 30.0086 51.0215C30.0086 50.7641 30.1826 50.5378 30.4319 50.471C30.7952 50.3737 31.0479 50.0445 31.0479 49.6684V36.6665C31.0479 35.5725 30.7725 34.5115 30.267 33.568C30.7314 33.5981 31.2385 33.6135 31.746 33.6135C32.2535 33.6135 32.7606 33.5981 33.225 33.568C32.7196 34.5116 32.4441 35.5726 32.4441 36.6665V49.8361C32.4441 50.1212 32.5904 50.3864 32.8314 50.5386C32.9993 50.6446 33.0996 50.825 33.0996 51.0214C33.0996 51.034 33.0992 51.0466 33.0985 51.0581C33.0506 51.7994 33.5714 52.4704 34.3099 52.6189ZM49.126 8.62061H49.1259C49.1259 9.12012 49.0839 9.61166 49.0032 10.0917H23.989C23.5302 10.0917 23.1581 10.4637 23.1581 10.9226C23.1581 11.3815 23.5301 11.7535 23.989 11.7535H48.5522C47.5587 14.3772 45.3481 16.4442 42.5138 17.1812C40.7518 17.6393 39.4134 19.0937 39.104 20.8865L38.0479 27.0041C37.7517 28.7198 36.7969 30.2071 35.3594 31.1921C35.1365 31.3449 34.4746 31.7017 34.3538 31.7555C33.6963 32.0147 29.8013 32.0148 29.1394 31.756C29.019 31.7028 28.3563 31.3453 28.1327 31.1922C26.6952 30.2071 25.7404 28.7198 25.4443 27.0042L24.3881 20.8866C24.0787 19.0938 22.7402 17.6395 20.9784 17.1813C19.3746 16.7642 17.9709 15.921 16.8736 14.7925C16.8476 14.7604 16.8191 14.7308 16.789 14.7033C15.9876 13.856 15.3566 12.8541 14.9399 11.7537H20.1232C20.582 11.7537 20.9541 11.3817 20.9541 10.9227C20.9541 10.4639 20.5821 10.0918 20.1232 10.0918H14.4889C14.4082 9.61176 14.3662 9.12012 14.3662 8.62072V8.51528H49.126V8.62061Z"/>
    </symbol>
    <symbol id="entertainment" fill="none" viewBox="0 0 56 56">
        <rect y="10" width="56" height="46" rx="20" style="fill: var(--icon-bg-color, #F5F6FB)"/>
        <path style="fill: var(--icon-color, #071f41)" d="M52.9915 27.517L50.7424 25.2679V3.8683L52.6321 1.97862C53.0026 1.60817 53.0026 1.00748 52.6321 0.637138C52.2615 0.266684 51.661 0.266684 51.2905 0.637138L49.4008 2.52681H28.001L25.7521 0.27784C25.3816 -0.0926134 24.7809 -0.0926134 24.4106 0.27784C24.0401 0.648294 24.0401 1.24898 24.4106 1.61933L26.5635 3.77227L19.8865 32.0664C19.3359 32.7544 19.1516 33.6715 19.4095 34.528C19.6965 35.481 20.4806 36.1959 21.4559 36.3938L25.7139 37.2581C26.5211 37.4221 27.2077 37.9323 27.5973 38.6581C27.9869 39.3839 28.0329 40.2379 27.7234 41.0013C27.22 42.243 25.9028 42.943 24.5925 42.665L8.64041 39.2854C6.23853 38.7764 3.81686 40.1399 3.00584 42.457C2.53553 43.8006 2.67279 45.2793 3.38231 46.5133C4.09194 47.7476 5.30064 48.6103 6.69813 48.8799L6.76419 48.8927C8.02124 49.1352 9.08874 49.9217 9.69304 51.0504C10.2972 52.1792 10.3599 53.5035 9.86465 54.6843C9.66198 55.1675 9.88948 55.7234 10.3726 55.9261C10.4925 55.9763 10.6167 56.0001 10.739 56.0001C11.1098 56.0001 11.4619 55.7814 11.6141 55.418C12.3312 53.708 12.2406 51.7897 11.3654 50.155C10.4903 48.5203 8.94404 47.3811 7.12371 47.0299L7.05765 47.0171C6.20157 46.852 5.46142 46.3237 5.02688 45.5678C4.59233 44.8119 4.50833 43.9065 4.79642 43.0836C5.29299 41.6646 6.77666 40.8301 8.24688 41.1414L24.1986 44.521C26.4105 44.9896 28.6317 43.8092 29.4811 41.7141C30.0034 40.4261 29.9258 38.9852 29.2684 37.7607C28.6111 36.5361 27.453 35.6754 26.0909 35.3989L21.8329 34.5346C21.4094 34.4486 21.2672 34.1187 21.2258 33.9809C21.1921 33.8694 21.1443 33.6165 21.2893 33.3622L49.4965 26.7058L51.6495 28.8588C51.8348 29.0439 52.0777 29.1367 52.3204 29.1367C52.5631 29.1367 52.806 29.0442 52.9913 28.8588C53.3619 28.4881 53.3619 27.8874 52.9915 27.517ZM47.5035 4.42403L38.701 13.2264L29.8984 4.42403H47.5035ZM28.1406 5.34935L37.3593 14.568L22.4459 29.4816L28.1406 5.34935ZM23.7875 30.8233L38.701 15.9097L47.9197 25.1284L23.7875 30.8233ZM48.845 23.3705L40.0425 14.568L48.845 5.76552V23.3705Z"/>
    </symbol>
    <symbol id="health" fill="none" viewBox="0 0 56 56">
        <rect y="10" width="56" height="46" rx="20" style="fill: var(--icon-bg-color, #F5F6FB)"/>
        <path style="fill: var(--icon-color, #071f41)" d="M55.794 31.2001L54.7975 16.6657C54.7328 15.7243 54.3047 14.8651 53.5921 14.2466C52.8794 13.6281 51.9685 13.3252 51.0274 13.3938C49.1776 13.5286 47.743 15.087 47.7613 16.9416L47.8789 28.7903L42.7464 35.3638C41.927 36.4131 40.5676 36.8344 39.3345 36.5184L44.9189 29.2664C45.8991 27.9935 45.7361 26.1495 44.5482 25.0683C43.9139 24.4909 43.0938 24.2057 42.2377 24.2656C41.3821 24.3254 40.6092 24.7216 40.0612 25.3815L31.6249 35.5413C30.2336 37.217 29.4791 39.3391 29.5002 41.517L29.6312 55.0092C29.6364 55.5469 30.0734 55.9802 30.6112 55.981L44.6585 56.0001C44.6589 56.0001 44.6594 56.0001 44.6598 56.0001C44.9346 56.0001 45.1968 55.8849 45.3826 55.6825C45.5688 55.4797 45.6613 55.2082 45.6374 54.9338L45.064 48.3295L54.3892 35.9362C55.4114 34.578 55.9102 32.8959 55.794 31.2001ZM52.821 34.7564L43.2698 47.4501C43.1243 47.6435 43.0553 47.8839 43.0762 48.125L43.5894 54.036L31.5845 54.0197L31.4629 41.498C31.4462 39.784 32.0401 38.114 33.1351 36.7953L41.5713 26.6353C41.7735 26.3918 42.0587 26.2456 42.3744 26.2237C42.6901 26.2012 42.993 26.3067 43.2271 26.5199C43.6656 26.9189 43.7256 27.5994 43.3638 28.069L37.0267 36.2986C36.8605 36.5143 36.7915 36.7894 36.8361 37.058C36.8808 37.3266 37.035 37.5647 37.2619 37.7151C39.5298 39.2193 42.6187 38.7171 44.2934 36.5719L49.6372 29.7278C49.774 29.5527 49.8472 29.3363 49.8451 29.1141L49.7241 16.9223C49.7158 16.1013 50.3511 15.4113 51.1701 15.3515C51.5885 15.3214 51.9901 15.4553 52.3056 15.729C52.6212 16.0029 52.8107 16.3832 52.8393 16.8001L53.8359 31.3345C53.9197 32.5597 53.5595 33.7749 52.821 34.7564Z"/>
        <path style="fill: var(--icon-color, #071f41)" d="M15.9387 25.3813C15.3907 24.7214 14.6178 24.325 13.7622 24.2654C12.9071 24.2057 12.0861 24.4907 11.452 25.068C10.2638 26.1493 10.1009 27.9934 11.0811 29.2663L16.6656 36.5183C15.4333 36.8339 14.073 36.4131 13.2536 35.3637L8.121 28.7902L8.23864 16.9415C8.25696 15.0869 6.82245 13.5285 4.97263 13.3937C4.03287 13.3256 3.12097 13.6278 2.40797 14.2465C1.69537 14.865 1.26723 15.7242 1.20259 16.6656L0.205905 31.1999C0.0895796 32.8957 0.588509 34.5778 1.61045 35.9361L10.9358 48.3294L10.3625 54.9337C10.3385 55.2079 10.431 55.4796 10.6172 55.6824C10.8032 55.8848 11.0654 56 11.34 56C11.3404 56 11.341 56 11.3413 56L25.3886 55.9809C25.9264 55.9801 26.3634 55.5468 26.3686 55.009L26.4998 41.5169C26.5208 39.3391 25.7663 37.217 24.375 35.5413L15.9387 25.3813ZM24.4155 54.0194L12.4106 54.0358L12.9238 48.1248C12.9448 47.8836 12.8759 47.6432 12.7303 47.4498L3.17894 34.7561C2.44043 33.7747 2.0802 32.5594 2.16407 31.3343L3.16075 16.7999C3.18941 16.383 3.37888 16.0026 3.69449 15.7287C3.98066 15.4804 4.33905 15.3471 4.71407 15.3471C4.75254 15.3471 4.79114 15.3485 4.83 15.3512C5.64899 15.4109 6.284 16.1009 6.27589 16.9221L6.15485 29.1139C6.15263 29.3361 6.22591 29.5525 6.36277 29.7276L11.7065 36.5717C13.3816 38.7168 16.4701 39.2187 18.7381 37.715C18.965 37.5645 19.1193 37.3265 19.1639 37.0579C19.2085 36.7893 19.1395 36.5141 18.9734 36.2983L12.6361 28.0689C12.2744 27.5992 12.3345 26.9187 12.7731 26.5197C13.0072 26.3065 13.3097 26.2017 13.6256 26.2234C13.9413 26.2454 14.2266 26.3917 14.4287 26.6352L22.865 36.7951C23.96 38.114 24.5539 39.784 24.5371 41.4979L24.4155 54.0194Z"/>
        <path style="fill: var(--icon-color, #071f41)" d="M47.2247 11.0429C47.2247 8.09331 46.0759 5.32022 43.9902 3.23447C41.9044 1.1486 39.1315 0 36.1817 0C33.2321 0 30.459 1.1486 28.3731 3.23434L28 3.60766L27.6266 3.23434C25.541 1.1486 22.7679 0 19.8182 0C16.8686 0 14.0955 1.1486 12.0096 3.23434C7.70413 7.53995 7.70413 14.5456 12.0097 18.8514L27.3059 34.1476C27.4976 34.3391 27.7489 34.4351 28 34.4351C28.2511 34.4351 28.5023 34.3393 28.694 34.1476L43.9902 18.8513C46.0759 16.7656 47.2247 13.9925 47.2247 11.0429ZM28.0001 32.0659L13.3977 17.4635C9.85726 13.9231 9.85726 8.16253 13.3977 4.62213C15.1126 2.90722 17.3929 1.96275 19.8182 1.96275C22.2436 1.96275 24.5238 2.90722 26.2389 4.62227L27.3061 5.68948C27.49 5.87358 27.7396 5.97695 28 5.97695C28.2604 5.97695 28.5099 5.87345 28.694 5.68948L29.7611 4.62227C31.4761 2.90722 33.7564 1.96275 36.1817 1.96275C38.6072 1.96275 40.8874 2.90722 42.6023 4.62227C44.3173 6.33731 45.2619 8.6175 45.2619 11.0429C45.2619 13.4684 44.3173 15.7485 42.6023 17.4636L28.0001 32.0659Z"/>
    </symbol>
    <symbol id="transport" fill="none" viewBox="0 0 56 56">
        <rect y="10" width="56" height="46" rx="20" style="fill: var(--icon-bg-color, #F5F6FB)"/>
        <path style="fill: var(--icon-color, #071f41)" d="M53.8581 22.4358L52.6376 21.1435L48.3538 9.5965C47.6239 7.64607 45.7573 6.35376 43.6752 6.3418H13.0786C10.9966 6.3418 9.12991 7.64607 8.4 9.5965L4.17607 20.9999L2.41709 22.6273C0.88547 23.9315 0 25.8461 0 27.8563V44.6803C0.0119658 47.4324 2.24957 49.658 5.00171 49.658H8.16068C10.9128 49.658 13.1504 47.4324 13.1624 44.6803V42.2392H42.8376V44.6803C42.8496 47.4324 45.0872 49.658 47.8393 49.658H50.9983C53.7504 49.658 55.988 47.4324 56 44.6803V27.4136C55.988 25.535 55.2222 23.7401 53.8581 22.4358ZM10.6496 10.4102C11.0325 9.39308 12.0017 8.73496 13.0786 8.73496H43.6872C44.7641 8.73496 45.7333 9.40504 46.1162 10.4102L49.8496 20.4615H47.0615C46.4034 15.9743 42.2273 12.8751 37.7402 13.5452C34.1624 14.0717 31.3504 16.8837 30.8239 20.4615H6.91624L10.6496 10.4102ZM44.6205 20.4615H33.241C33.8991 17.3144 36.9863 15.3042 40.1333 15.9623C42.3829 16.4409 44.1419 18.1999 44.6205 20.4615ZM10.7692 44.6803C10.7573 46.1162 9.59658 47.2649 8.16068 47.2649H5.00171C3.56581 47.2649 2.40513 46.1162 2.39316 44.6803V41.5452C3.11111 42.0119 4.05641 42.2392 5.00171 42.2392H10.7692V44.6803ZM53.6068 44.6803C53.5949 46.1162 52.4342 47.2649 50.9983 47.2649H47.8393C46.4034 47.2649 45.2427 46.1042 45.2308 44.6803V42.2392H50.9983C51.9436 42.2392 52.8889 42.0119 53.6068 41.5452V44.6803ZM50.9983 39.8461H5.00171C3.57778 39.858 2.40513 38.7213 2.39316 37.2854V27.8563C2.39316 26.5401 2.97949 25.2837 3.98462 24.4341C3.99658 24.4221 4.02051 24.3982 4.03248 24.3862L5.65983 22.8546H50.9744L52.1231 24.0871C52.135 24.111 52.1709 24.123 52.1829 24.1469C53.0803 24.9965 53.5949 26.1811 53.5949 27.4136V37.2854H53.6068C53.5949 38.7093 52.4222 39.858 50.9983 39.8461Z"/>
        <path style="fill: var(--icon-color, #071f41)" d="M15.7948 27.6411H6.82048C6.16236 27.6411 5.6239 28.1796 5.6239 28.8377V35.0599C5.6239 35.718 6.16236 36.2565 6.82048 36.2565H15.7948C16.453 36.2565 16.9914 35.718 16.9914 35.0599V28.8377C16.9914 28.1796 16.453 27.6411 15.7948 27.6411ZM14.5983 33.8633H8.01706V30.0343H14.5983V33.8633Z"/>
        <path style="fill: var(--icon-color, #071f41)" d="M49.1795 27.6411H40.2051C39.547 27.6411 39.0085 28.1796 39.0085 28.8377V35.0599C39.0085 35.718 39.547 36.2565 40.2051 36.2565H49.1795C49.8376 36.2565 50.3761 35.718 50.3761 35.0599V28.8377C50.3761 28.1796 49.8376 27.6411 49.1795 27.6411ZM47.9829 33.8633H41.4017V30.0343H47.9829V33.8633Z"/>
        <path style="fill: var(--icon-color, #071f41)" d="M33.7795 32.6665H22.2205C21.5624 32.6665 21.0239 33.205 21.0239 33.8631C21.0239 34.5212 21.5624 35.0597 22.2205 35.0597H33.7795C34.4376 35.0597 34.9761 34.5212 34.9761 33.8631C34.9761 33.205 34.4376 32.6665 33.7795 32.6665Z"/>
        <path style="fill: var(--icon-color, #071f41)" d="M33.7795 28.957H22.2205C21.5624 28.957 21.0239 29.4955 21.0239 30.1536C21.0239 30.8117 21.5624 31.3502 22.2205 31.3502H33.7795C34.4376 31.3502 34.9761 30.8117 34.9761 30.1536C34.9761 29.4955 34.4376 28.957 33.7795 28.957Z"/>
    </symbol>
    <symbol id="housing" fill="none" viewBox="0 0 56 56">
        <rect y="10" width="56" height="46" rx="20" style="fill: var(--icon-bg-color, #F5F6FB)"/>
        <path style="fill: var(--icon-color, #071f41)" d="M53.2246 20.9157H52.112V16.7807C52.112 14.3363 50.1234 12.3477 47.679 12.3477H31.6128C30.1234 12.3477 28.8042 13.0867 28 14.2164C27.1958 13.0866 25.8766 12.3477 24.3872 12.3477H14.2939C13.8409 12.3477 13.4736 12.7149 13.4736 13.168C13.4736 13.621 13.8409 13.9883 14.2939 13.9883H24.3872C25.927 13.9883 27.1797 15.241 27.1797 16.7807V24.985C27.1625 24.9684 27.1444 24.953 27.127 24.9367C26.1546 24.0301 24.8368 23.5075 23.5065 23.5075H9.84255C9.77025 22.4061 9.01939 21.4374 7.98328 21.0701C7.69136 20.9666 7.3827 20.9157 7.07306 20.9157H5.52858V16.7807C5.52858 15.241 6.78125 13.9883 8.32103 13.9883H11.0126C11.4657 13.9883 11.833 13.621 11.833 13.168C11.833 12.7149 11.4657 12.3477 11.0126 12.3477H8.32103C5.87661 12.3477 3.88795 14.3363 3.88795 16.7807V20.9157H2.77539C1.24502 20.9157 0 22.1609 0 23.691V32.2563C0 35.4433 2.59284 38.0361 5.77981 38.0361H6.19205C6.19205 38.0361 5.29386 40.452 5.2932 40.4539C4.72653 41.9779 5.89291 43.6521 7.51625 43.6521H8.83597C9.57469 43.6521 10.2818 43.3003 10.7275 42.7111L14.2637 38.0361H41.7365L45.2727 42.7112C45.7184 43.3003 46.4255 43.6521 47.1641 43.6521C47.1641 43.6521 48.483 43.6521 48.4837 43.6521C50.1091 43.6521 51.2734 41.9776 50.7068 40.4539L49.8078 38.0361H50.2202C53.4072 38.0361 56 35.4433 56 32.2563V23.691C56 22.1609 54.755 20.9157 53.2246 20.9157ZM28.8203 16.781C28.8203 15.2411 30.073 13.9884 31.6128 13.9884H47.679C49.2188 13.9884 50.4714 15.2411 50.4714 16.7808V20.9158C50.4714 20.9158 48.9274 20.9158 48.9268 20.9158C47.8361 20.9158 46.7899 21.6158 46.3668 22.62C46.2483 22.9013 46.1774 23.2033 46.1575 23.5077C46.1575 23.5077 32.4939 23.5077 32.4935 23.5077C31.1427 23.5077 29.7964 24.0512 28.8203 24.9852V16.781ZM9.84856 25.1482H23.5065C25.532 25.1484 27.1797 26.7961 27.1797 28.8215V29.988H9.84856V25.1482ZM9.41905 41.7214C9.28167 41.9031 9.06358 42.0115 8.83586 42.0115C8.83586 42.0115 7.52073 42.0115 7.51614 42.0115C7.01389 42.0115 6.65591 41.4962 6.83091 41.0257L7.94237 38.0361H12.2065L9.41905 41.7214ZM48.4837 42.0114H47.1641C46.9364 42.0114 46.7184 41.903 46.5811 41.7214L43.7935 38.0361H48.0576C48.0576 38.0361 49.1653 41.0152 49.1691 41.0256C49.3444 41.4972 48.9839 42.0114 48.4837 42.0114ZM50.2202 36.3955H5.77981C3.49748 36.3956 1.64062 34.5386 1.64062 32.2563V23.691C1.64062 23.0653 2.14966 22.5563 2.77539 22.5563H7.07306C7.6988 22.5563 8.20783 23.0653 8.20783 23.691V30.8082C8.20783 31.2612 8.57511 31.6285 9.02814 31.6285H39.1584C39.6115 31.6285 39.9787 31.2612 39.9787 30.8082C39.9787 30.3552 39.6115 29.9879 39.1584 29.9879H28.8203V28.8214C28.8203 26.796 30.468 25.1482 32.4935 25.1482H46.1514V29.988H42.4397C41.9867 29.988 41.6194 30.3553 41.6194 30.8083C41.6194 31.2613 41.9867 31.6286 42.4397 31.6286H46.9717C47.4248 31.6286 47.7921 31.2613 47.7921 30.8083V23.6912C47.7921 23.0654 48.3011 22.5564 48.9268 22.5564H53.2245C53.8502 22.5564 54.3593 23.0654 54.3593 23.6912V32.2563H54.3594C54.3594 34.5386 52.5025 36.3955 50.2202 36.3955Z"/>
    </symbol>
    <symbol id="technique" fill="none" viewBox="0 0 56 56">
        <rect y="10" width="56" height="46" rx="20" style="fill: var(--icon-bg-color, #F5F6FB)"/>
        <path style="fill: var(--icon-color, #071f41)" d="M37.9904 16.9692C37.3867 16.9692 36.8966 17.458 36.8966 18.0626C36.8966 18.6667 37.3867 19.1563 37.9904 19.1563C38.5953 19.1563 39.0841 18.6667 39.0841 18.0626C39.0841 17.458 38.5953 16.9692 37.9904 16.9692Z"/>
        <path style="fill: var(--icon-color, #071f41)" d="M18.1174 36.8418C17.5125 36.8418 17.0237 37.3318 17.0237 37.9355C17.0237 38.5405 17.5125 39.0293 18.1174 39.0293C18.7211 39.0293 19.2112 38.5405 19.2112 37.9355C19.2112 37.3318 18.7211 36.8418 18.1174 36.8418Z"/>
        <path style="fill: var(--icon-color, #071f41)" d="M54.6939 6.72881C54.3248 6.64293 53.9369 6.75444 53.6703 7.02361L49.1359 11.5939H46.9621L44.5691 9.11455V6.91039L49.0385 2.37431C49.303 2.106 49.4106 1.7202 49.323 1.35319C49.2359 0.986616 48.9659 0.690961 48.6087 0.570478C47.4859 0.191937 46.3109 0.000103766 45.1159 0.000103766C41.5536 0.000103766 38.3172 1.66124 36.2365 4.55754C34.2891 7.26885 33.6888 10.5915 34.5489 13.7715L26.4923 21.8281L13.0699 8.37499V5.7346C13.0699 5.35051 12.8682 4.99419 12.5388 4.7968L4.80524 0.156049C4.37458 -0.102435 3.82386 -0.0345032 3.46924 0.320539L0.375977 3.41337C0.0213622 3.76842 -0.0465699 4.31914 0.211487 4.7498L4.85138 12.4834C5.04877 12.8128 5.40467 13.014 5.78876 13.0145L8.42829 13.0153L21.8519 26.4684L13.8261 34.4943C10.6461 33.6346 7.32172 34.2358 4.60913 36.1845C1.71454 38.2639 0.0546875 41.4994 0.0546875 45.0618C0.0546875 46.2564 0.246521 47.4317 0.625061 48.5541C0.745972 48.9134 1.04462 49.1847 1.41376 49.2702C1.78333 49.356 2.17084 49.2445 2.43787 48.9754L6.97181 44.4055H9.1576L11.648 46.8959V49.0817L7.07819 53.6157C6.80903 53.8827 6.69751 54.2702 6.78339 54.6398C6.86884 55.0089 7.14014 55.3076 7.49946 55.4285C8.62183 55.807 9.79719 55.9989 10.9918 55.9989C14.5541 55.9989 17.7893 54.3386 19.8691 51.444C21.8178 48.7314 22.4189 45.4074 21.5593 42.2274L28.0051 35.7816L29.4817 37.3854L28.8041 38.0626C28.3769 38.4899 28.3769 39.1824 28.8041 39.6097C29.2313 40.0365 29.9235 40.0365 30.3512 39.6097L30.9647 38.9962L44.8186 54.0446C44.8288 54.0557 44.8395 54.0664 44.8502 54.0771C47.4137 56.6406 51.5669 56.6414 54.1317 54.0767C56.6892 51.5179 56.6892 47.3544 54.1317 44.7956C54.1206 44.7845 54.109 44.7738 54.0975 44.7631L39.0255 30.9357L39.6322 30.329C40.0595 29.9022 40.0595 29.2097 39.6322 28.7824C39.205 28.3552 38.5128 28.3552 38.0852 28.7824L37.4123 29.4557L35.8054 27.9809L42.2824 21.5038C43.2032 21.7499 44.1534 21.8747 45.1159 21.8747C51.1469 21.8747 56.053 16.9682 56.053 10.9376C56.053 9.7426 55.8612 8.56767 55.4826 7.44487C55.3617 7.08556 55.0631 6.81426 54.6939 6.72881ZM9.6562 11.1491C9.45112 10.9436 9.17298 10.8389 8.88245 10.8389L6.4087 10.8381L2.52674 4.35673L4.41217 2.4713L10.8824 6.35411V8.82787C10.8824 9.11754 10.9973 9.39525 11.202 9.60033L24.9456 23.3752L23.3986 24.9218L9.6562 11.1491ZM37.4772 32.4841L52.6004 46.358C54.2898 48.0653 54.2846 50.8296 52.5846 52.5305C50.8808 54.2343 48.1225 54.2395 46.4118 52.5454L32.5126 37.4478L37.4772 32.4841ZM35.8639 31.0037L31.0296 35.8371L29.5531 34.2332L34.257 29.5288L35.8639 31.0037ZM45.1159 19.6872C44.1593 19.6872 43.2185 19.5338 42.3205 19.2313C41.927 19.0993 41.492 19.201 41.1981 19.4945C35.7148 24.9778 23.8997 36.7924 19.5491 41.1435C19.2551 41.4374 19.153 41.8724 19.2859 42.2663C20.1951 44.9661 19.7601 47.8457 18.0922 50.1678C16.4289 52.483 13.8406 53.8114 10.9918 53.8114C10.6718 53.8114 10.3535 53.7938 10.0382 53.7601L13.5121 50.3131C13.7189 50.108 13.8355 49.8286 13.8355 49.5368V46.4426C13.8355 46.1525 13.7202 45.8744 13.5151 45.6693L10.3838 42.538C10.1787 42.333 9.90058 42.2176 9.61048 42.2176H6.51636C6.22455 42.2176 5.94513 42.3342 5.73963 42.541L2.29303 46.015C2.25885 45.6997 2.24176 45.3814 2.24176 45.0613C2.24176 42.212 3.56964 39.6242 5.88532 37.9609C8.20698 36.293 11.087 35.8576 13.7872 36.7672C14.1807 36.9001 14.6157 36.798 14.9096 36.504C14.9699 36.4442 36.5432 14.8704 36.5586 14.855C36.8526 14.5611 36.9543 14.1266 36.8218 13.7327C35.9122 11.0329 36.3463 8.1541 38.013 5.83373C39.6775 3.51634 42.2662 2.18761 45.1155 2.18761C45.4453 2.18761 45.773 2.20598 46.0977 2.24187L42.696 5.69444C42.4944 5.89909 42.3816 6.17467 42.3816 6.46178V9.5559C42.3816 9.83959 42.4914 10.1117 42.6883 10.3155L45.7102 13.4468C45.9162 13.6605 46.2003 13.7809 46.4972 13.7809H49.5913C49.8827 13.7809 50.1621 13.6647 50.3676 13.4575L53.8142 9.984C53.8484 10.2993 53.8655 10.6176 53.8655 10.9376C53.8655 15.7621 49.9404 19.6872 45.1159 19.6872Z"/>
        <path style="fill: var(--icon-color, #071f41)" d="M34.1238 20.3824L20.4369 34.0693C20.0101 34.4961 20.0101 35.1887 20.4369 35.6159C20.8642 36.0432 21.5567 36.0432 21.984 35.6159L35.6708 21.9291C36.0981 21.5023 36.0981 20.8097 35.6708 20.3824C35.2436 19.9552 34.551 19.9552 34.1238 20.3824Z"/>
        <path style="fill: var(--icon-color, #071f41)" d="M47.9451 49.4375C48.3724 49.8634 49.0649 49.8634 49.4922 49.4349C49.9186 49.0072 49.9173 48.3147 49.4896 47.8883L39.6309 38.0612C39.2032 37.6348 38.5102 37.6361 38.0843 38.0637C37.6574 38.4918 37.6587 39.184 38.0864 39.6104L47.9451 49.4375Z"/>
    </symbol>
    <symbol id="communal" fill="none" viewBox="0 0 56 56">
        <rect y="10" width="56" height="46" rx="20" style="fill: var(--icon-bg-color, #F5F6FB)"/>
        <path style="fill: var(--icon-color, #071f41)" d="M53.6881 0H2.31193C1.52336 0 0.878174 0.645189 0.878174 1.43375C0.878174 2.22232 1.52336 2.86751 2.31193 2.86751H5.40644V54.5304C5.40644 55.0561 5.69319 55.546 6.15916 55.7969C6.62513 56.0478 7.18669 56.0239 7.62876 55.7252L13.8536 51.5793L20.1024 55.7371C20.5803 56.0597 21.2136 56.0597 21.6915 55.7371L27.9164 51.5912L34.1651 55.7491C34.6431 56.0717 35.2763 56.0717 35.7542 55.7491L41.9791 51.6032L48.2279 55.761C48.4668 55.9164 48.7416 56 49.0164 56C49.2434 56 49.4824 55.9403 49.6975 55.8327C50.1634 55.5818 50.4502 55.092 50.4502 54.5662L50.4263 2.90335H53.6881C54.4766 2.90335 55.1218 2.25816 55.1218 1.4696C55.1218 0.681033 54.4766 0 53.6881 0ZM47.5946 51.8541L42.7796 48.652C42.3017 48.3294 41.6684 48.3294 41.1905 48.652L34.9656 52.8099L28.7169 48.652C28.239 48.3294 27.6057 48.3294 27.1278 48.652L20.9029 52.798L14.6541 48.652C14.1762 48.3294 13.543 48.3294 13.0651 48.652L8.27395 51.8421V2.85556H47.5827L47.5946 51.8541Z"/>
        <path style="fill: var(--icon-color, #071f41)" d="M14.8692 22.8924H29.8877C30.6763 22.8924 31.3215 22.2472 31.3215 21.4587C31.3215 20.6701 30.6763 20.0249 29.8877 20.0249H14.8692C14.0806 20.0249 13.4354 20.6701 13.4354 21.4587C13.4354 22.2472 14.0687 22.8924 14.8692 22.8924Z"/>
        <path style="fill: var(--icon-color, #071f41)" d="M14.8692 27.8748H26.1241C26.9127 27.8748 27.5579 27.2296 27.5579 26.4411C27.5579 25.6525 26.9127 25.0073 26.1241 25.0073H14.8692C14.0806 25.0073 13.4354 25.6525 13.4354 26.4411C13.4354 27.2296 14.0687 27.8748 14.8692 27.8748Z"/>
        <path style="fill: var(--icon-color, #071f41)" d="M37.3912 22.8924H41.1428C41.9314 22.8924 42.5766 22.2472 42.5766 21.4587C42.5766 20.6701 41.9314 20.0249 41.1428 20.0249H37.3912C36.6026 20.0249 35.9574 20.6701 35.9574 21.4587C35.9574 22.2472 36.5906 22.8924 37.3912 22.8924Z"/>
        <path style="fill: var(--icon-color, #071f41)" d="M37.3912 27.8748H41.1428C41.9314 27.8748 42.5766 27.2296 42.5766 26.4411C42.5766 25.6525 41.9314 25.0073 41.1428 25.0073H37.3912C36.6026 25.0073 35.9574 25.6525 35.9574 26.4411C35.9574 27.2296 36.5906 27.8748 37.3912 27.8748Z"/>
        <path style="fill: var(--icon-color, #071f41)" d="M14.8692 11.3865H29.8877C30.6763 11.3865 31.3215 10.7414 31.3215 9.9528C31.3215 9.16423 30.6763 8.51904 29.8877 8.51904H14.8692C14.0806 8.51904 13.4354 9.16423 13.4354 9.9528C13.4354 10.7414 14.0687 11.3865 14.8692 11.3865Z"/>
        <path style="fill: var(--icon-color, #071f41)" d="M14.8692 16.3568H26.1241C26.9127 16.3568 27.5579 15.7116 27.5579 14.923C27.5579 14.1344 26.9127 13.4893 26.1241 13.4893H14.8692C14.0806 13.4893 13.4354 14.1344 13.4354 14.923C13.4354 15.7116 14.0687 16.3568 14.8692 16.3568Z"/>
        <path style="fill: var(--icon-color, #071f41)" d="M37.3912 11.3865H41.1428C41.9314 11.3865 42.5766 10.7414 42.5766 9.9528C42.5766 9.16423 41.9314 8.51904 41.1428 8.51904H37.3912C36.6026 8.51904 35.9574 9.16423 35.9574 9.9528C35.9574 10.7414 36.5906 11.3865 37.3912 11.3865Z"/>
        <path style="fill: var(--icon-color, #071f41)" d="M37.3912 16.3568H41.1428C41.9314 16.3568 42.5766 15.7116 42.5766 14.923C42.5766 14.1344 41.9314 13.4893 41.1428 13.4893H37.3912C36.6026 13.4893 35.9574 14.1344 35.9574 14.923C35.9574 15.7116 36.5906 16.3568 37.3912 16.3568Z"/>
        <path style="fill: var(--icon-color, #071f41)" d="M14.8692 34.5413H29.8877C30.6763 34.5413 31.3215 33.8961 31.3215 33.1076C31.3215 32.319 30.6763 31.6738 29.8877 31.6738H14.8692C14.0806 31.6738 13.4354 32.319 13.4354 33.1076C13.4354 33.8961 14.0687 34.5413 14.8692 34.5413Z"/>
        <path style="fill: var(--icon-color, #071f41)" d="M14.8692 39.5116H26.1241C26.9127 39.5116 27.5579 38.8664 27.5579 38.0778C27.5579 37.2892 26.9127 36.644 26.1241 36.644H14.8692C14.0806 36.644 13.4354 37.2892 13.4354 38.0778C13.4354 38.8664 14.0687 39.5116 14.8692 39.5116Z"/>
        <path style="fill: var(--icon-color, #071f41)" d="M37.3912 34.5413H41.1428C41.9314 34.5413 42.5766 33.8961 42.5766 33.1076C42.5766 32.319 41.9314 31.6738 41.1428 31.6738H37.3912C36.6026 31.6738 35.9574 32.319 35.9574 33.1076C35.9574 33.8961 36.5906 34.5413 37.3912 34.5413Z"/>
        <path style="fill: var(--icon-color, #071f41)" d="M37.3912 39.5116H41.1428C41.9314 39.5116 42.5766 38.8664 42.5766 38.0778C42.5766 37.2892 41.9314 36.644 41.1428 36.644H37.3912C36.6026 36.644 35.9574 37.2892 35.9574 38.0778C35.9574 38.8664 36.5906 39.5116 37.3912 39.5116Z"/>
    </symbol>
    <symbol id="sports" fill="none" viewBox="0 0 56 56">
        <rect y="10" width="56" height="46" rx="20" style="fill: var(--icon-bg-color, #F5F6FB)"/>
        <path style="fill: var(--icon-color, #071f41)" d="M54.285 23.6511H50.9473C50.3287 23.6511 49.7835 23.9689 49.4648 24.4492C46.9133 24.1826 46.5732 23.7737 46.2976 23.4404C45.9225 22.9871 45.4777 22.6026 44.9753 22.2975L37.3058 17.6389C35.7438 14.0107 33.1312 11.7424 31.1923 10.4709C30.4374 9.97577 29.9867 9.13708 29.9867 8.22748C29.9867 7.69086 30.1447 7.17218 30.4438 6.72699L32.351 3.88837C32.7313 3.32312 32.8624 2.64465 32.721 1.97815C32.5796 1.31165 32.184 0.745117 31.6072 0.382385C31.2086 0.132446 30.7493 0 30.2793 0H21.2174C20.747 0 20.2877 0.132446 19.8895 0.382385C19.3128 0.74469 18.9171 1.31122 18.7757 1.97815C18.6343 2.64465 18.7655 3.32312 19.1457 3.88837L21.0529 6.72699C21.352 7.17218 21.5101 7.69086 21.5101 8.22748C21.5101 9.13708 21.0593 9.97577 20.3044 10.4709C17.4312 12.3551 11.0105 17.9084 13.4381 28.7618C14.7921 34.8154 15.838 39.0819 16.4669 41.1348H2.94069C1.82515 41.1348 0.849752 41.9278 0.62203 43.0198L0.15975 45.239C0.0136315 45.9401 0.188802 46.6608 0.640829 47.2167C1.09243 47.7721 1.76235 48.0908 2.47841 48.0908H49.0183C49.7348 48.0908 50.4043 47.7721 50.8563 47.2167C51.3079 46.6608 51.4831 45.9401 51.337 45.239L50.8747 43.0198C50.647 41.9278 49.6716 41.1348 48.5561 41.1348H35.0299C35.2179 40.5209 35.4447 39.704 35.7075 38.6923H36.5979C39.2105 38.6923 41.7996 38.3022 44.2956 37.5327L49.3939 36.8901C49.6985 37.4344 50.28 37.804 50.9473 37.804H54.285C55.2655 37.804 56.0636 37.0063 56.0636 36.0254V25.4301C56.0636 24.4492 55.2655 23.6511 54.285 23.6511ZM20.3809 2.31866C20.4292 2.09009 20.5646 1.89612 20.7624 1.77179C20.8991 1.68591 21.0564 1.64062 21.2174 1.64062H30.2793C30.4404 1.64062 30.598 1.68591 30.7343 1.77179C30.9322 1.89612 31.0676 2.09009 31.1163 2.31866C31.1646 2.54681 31.1193 2.77966 30.9894 2.97321L30.0456 4.37799H21.4511L20.5073 2.97321C20.377 2.77966 20.3322 2.54681 20.3809 2.31866ZM21.2038 11.8428C22.4231 11.0435 23.1511 9.69165 23.1511 8.22748C23.1511 7.44519 22.9401 6.68726 22.5427 6.01862H28.954C28.5567 6.68726 28.346 7.44519 28.346 8.22748C28.346 9.69165 29.0736 11.0435 30.293 11.8428C30.7954 12.1722 31.3479 12.5756 31.9135 13.0605H19.5879C20.1621 12.5674 20.7158 12.1628 21.2038 11.8428ZM49.2687 43.3548L49.731 45.5739C49.7925 45.8687 49.6648 46.0811 49.5832 46.1815C49.5015 46.2819 49.3195 46.4502 49.0183 46.4502H2.47841C2.17721 46.4502 1.9952 46.2819 1.91359 46.1815C1.83199 46.0811 1.70424 45.8687 1.76577 45.5739L2.22805 43.3548C2.29812 43.019 2.59804 42.7755 2.94069 42.7755H48.5556C48.8987 42.7755 49.1982 43.019 49.2687 43.3548ZM33.3081 41.1348H18.1887C17.8507 40.1278 16.9928 37.1362 15.039 28.4033C14.2153 24.7209 14.4123 21.3871 15.6205 18.4698H18.6424C19.0957 18.4698 19.4627 18.1028 19.4627 17.6495C19.4627 17.1962 19.0957 16.8292 18.6424 16.8292H16.434C16.8971 16.0311 17.4124 15.324 17.9469 14.7011H33.5559C34.0916 15.3257 34.6056 16.0333 35.0662 16.8292H21.9279C21.4746 16.8292 21.1076 17.1962 21.1076 17.6495C21.1076 18.1028 21.4746 18.4698 21.9279 18.4698H32.7988C32.5899 18.9804 32.5471 19.5418 32.6809 20.0878C32.8488 20.7701 33.2722 21.3469 33.872 21.7101L35.2824 22.5667H26.1649C24.717 22.5667 23.5429 23.6805 23.4925 25.1024C23.4788 25.481 23.5446 25.8488 23.6822 26.188H22.841C22.1202 26.188 21.4481 26.4734 20.9474 26.9921C20.4475 27.5104 20.1856 28.1931 20.2117 28.9143C20.2514 30.041 20.997 30.9741 22.0254 31.3133C21.8626 31.6551 21.7716 32.037 21.7716 32.4404C21.7716 33.8909 22.952 35.0714 24.4025 35.0714H25.6454C25.5207 35.3773 25.4519 35.7118 25.4519 36.0617C25.4519 37.5126 26.6323 38.6927 28.0828 38.6927H34.0117C33.667 39.9966 33.4452 40.7277 33.3081 41.1348ZM44.0191 35.9139C43.9708 35.9199 43.9239 35.9301 43.8777 35.9442C41.5185 36.6791 39.0691 37.0516 36.5979 37.0516H28.0828C27.5368 37.0516 27.0925 36.6073 27.0925 36.0613C27.0925 35.5153 27.5368 35.0709 28.0828 35.0709H33.4597C33.9126 35.0709 34.2801 34.7035 34.2801 34.2506C34.2801 33.7973 33.9126 33.4303 33.4597 33.4303H24.4025C23.8565 33.4303 23.4122 32.986 23.4122 32.4399C23.4122 31.8939 23.8565 31.4496 24.4025 31.4496H33.4597C33.9126 31.4496 34.2801 31.0826 34.2801 30.6293C34.2801 30.176 33.9126 29.809 33.4597 29.809H22.8841C22.333 29.809 21.8698 29.3813 21.851 28.8553C21.8416 28.5836 21.9399 28.326 22.1279 28.1307C22.3167 27.9359 22.5697 27.8282 22.841 27.8282H33.4597C33.9126 27.8282 34.2801 27.4608 34.2801 27.0079C34.2801 26.5546 33.9126 26.1876 33.4597 26.1876H26.1218C25.8505 26.1876 25.5971 26.08 25.4087 25.8847C25.2207 25.6899 25.1225 25.4323 25.1319 25.1601C25.1507 24.6346 25.6142 24.2069 26.1649 24.2069H37.472C37.9381 24.2069 38.3359 23.9053 38.4619 23.4562C38.5875 23.0072 38.4043 22.5428 38.0056 22.301L34.7231 20.307C34.4967 20.1699 34.3377 19.9532 34.2745 19.696C34.2113 19.4393 34.2519 19.1731 34.389 18.9471C34.6718 18.4797 35.2824 18.3301 35.7485 18.6121L44.1238 23.6993C44.4694 23.9091 44.7754 24.174 45.0334 24.4859C45.7042 25.2964 46.5655 25.7826 49.1683 26.0671V35.264L44.0191 35.9139ZM54.423 36.0254C54.423 36.1014 54.361 36.1634 54.285 36.1634H50.9473C50.8713 36.1634 50.8089 36.1014 50.8089 36.0254V25.4297C50.8089 25.3536 50.8709 25.2917 50.9473 25.2917H54.285C54.361 25.2917 54.423 25.3536 54.423 25.4297V36.0254Z"/>
        <path style="fill: var(--icon-color, #071f41)" d="M39.3344 53.3537L35.062 49.9165C34.709 49.6324 34.1925 49.6888 33.9088 50.0417C33.6247 50.3946 33.6807 50.9111 34.0336 51.1948L37.9677 54.3594H13.5292L17.4714 51.1884C17.8243 50.9047 17.8803 50.3882 17.5961 50.0353C17.3124 49.6819 16.7959 49.6264 16.443 49.9101L12.1624 53.3533C11.6638 53.7544 11.4793 54.4034 11.6916 55.0067C11.9039 55.61 12.4551 56 13.0947 56H38.4022C39.0418 56 39.5925 55.6104 39.8052 55.0067C40.0176 54.4034 39.833 53.7544 39.3344 53.3537Z"/>
    </symbol>
    <symbol id="education" fill="none" viewBox="0 0 56 56">
        <rect y="10" width="56" height="46" rx="20" style="fill: var(--icon-bg-color, #F5F6FB)"/>
        <path style="fill: var(--icon-color, #071f41)" d="M54.9145 11.2545C54.9109 11.2545 54.9072 11.2545 54.9037 11.2545H51.2239V9.99535C51.2437 9.49698 50.9213 9.04908 50.4423 8.90987C47.8877 8.2404 45.257 7.90471 42.616 7.91123C38.2741 7.91123 32.3582 8.88816 27.9837 13.3386C23.6418 8.84474 17.6825 7.91123 13.3514 7.91123C10.7104 7.90471 8.07978 8.2404 5.5251 8.90987C5.04613 9.04908 4.72374 9.49698 4.74355 9.99535V11.2437H1.08548C0.486024 11.2437 0 11.7297 0 12.3291V46.9994C0 47.5989 0.486024 48.0849 1.08548 48.0849C1.27191 48.0844 1.45509 48.0358 1.61737 47.9438C1.72592 47.8895 12.5807 41.9519 27.7341 45.7728H27.8969H27.9946C28.0811 45.7833 28.1685 45.7833 28.2551 45.7728C43.4518 41.9194 54.3066 47.8461 54.3718 47.9438C54.7076 48.1377 55.1214 48.1377 55.4573 47.9438C55.791 47.7511 55.9977 47.3958 56 47.0103V12.34C56 11.7405 55.5141 11.2545 54.9145 11.2545ZM2.17096 45.2735V13.4255H4.76526V40.6494C4.75848 41.2488 5.23894 41.7403 5.8384 41.7471C5.89701 41.7477 5.95563 41.7437 6.01357 41.7348C8.25916 41.392 10.5263 41.2106 12.7978 41.1921C15.9444 41.1376 19.0777 41.6108 22.0678 42.5924C15.3155 41.7758 8.46635 42.6987 2.17096 45.2735ZM12.7978 39.032C10.8235 39.0365 8.85142 39.1633 6.89281 39.4119V10.8529C9.00624 10.3821 11.1644 10.1418 13.3297 10.1365C17.3894 10.1365 22.9905 11.07 26.8765 15.4553L26.9091 42.4947C24.6513 41.0184 20.2442 39.032 12.7978 39.032ZM29.0801 15.4553C32.9661 11.1134 38.5672 10.1365 42.6269 10.1365C44.792 10.1428 46.9502 10.383 49.0638 10.8529V39.4119C47.1161 39.161 45.155 39.0305 43.1913 39.0211C35.7883 39.0211 31.3704 41.0076 29.0801 42.4838V15.4553ZM53.8182 45.2735C47.5094 42.6917 40.6445 41.7686 33.8779 42.5924C36.8821 41.6073 40.0304 41.1339 43.1913 41.1921C45.4771 41.2049 47.7589 41.3826 50.019 41.724C50.6117 41.8139 51.1651 41.4063 51.2551 40.8137C51.2639 40.7557 51.268 40.6971 51.2673 40.6385V13.4255H53.8616L53.8182 45.2735Z"/>
    </symbol>
    <symbol id="other" fill="none" viewBox="0 0 56 56">
        <rect y="10" width="56" height="46" rx="20" style="fill: var(--icon-bg-color, #F5F6FB)"/>
        <path style="fill: var(--icon-color, #071f41)" d="M55.9927 39.084C54.3202 25.6665 41.8004 23.6786 38.2667 23.3855V11.1998C38.2667 11.116 38.1491 2.7998 28 2.7998C17.8509 2.7998 17.7333 11.116 17.7333 11.1998V23.3855C14.1996 23.6786 1.68483 25.6665 0.00729167 39.084C0.00729167 39.1027 0 39.1775 0 39.1998V42.9331C0 43.4486 0.417904 43.8665 0.933333 43.8665H5.6V45.7331H2.8C2.28457 45.7331 1.86667 46.151 1.86667 46.6665C1.86667 48.926 3.23203 53.1998 8.4 53.1998C13.568 53.1998 14.9333 48.926 14.9333 46.6665C14.9333 46.151 14.5154 45.7331 14 45.7331H11.2V43.8665H25.2V45.7331H22.4C21.8846 45.7331 21.4667 46.151 21.4667 46.6665C21.4667 48.926 22.832 53.1998 28 53.1998C33.168 53.1998 34.5333 48.926 34.5333 46.6665C34.5333 46.151 34.1154 45.7331 33.6 45.7331H30.8V43.8665H44.8V45.7331H42C41.4846 45.7331 41.0667 46.151 41.0667 46.6665C41.0667 48.926 42.432 53.1998 47.6 53.1998C52.768 53.1998 54.1333 48.926 54.1333 46.6665C54.1333 46.151 53.7154 45.7331 53.2 45.7331H50.4V43.8665H55.0667C55.5821 43.8665 56 43.4486 56 42.9331V39.1998C56 39.1784 56 39.1064 55.9927 39.084ZM19.6 11.1998C19.6 10.9327 19.6934 4.66647 28 4.66647C36.2487 4.66647 36.4 10.9364 36.4 11.1998V23.3331H34.5333V17.7331H32.6667V23.3331H19.6V11.1998ZM10.8268 27.0104C13.3041 25.9226 15.9633 25.3083 18.6667 25.1998H37.3333C40.0367 25.3083 42.6959 25.9226 45.1732 27.0104C49.88 28.9582 53.2223 33.2293 53.9811 38.2665H2.01888C2.77767 33.2293 6.11999 28.9582 10.8268 27.0104ZM8.4 51.3331C6.12591 51.504 4.1166 49.8625 3.83132 47.5998H12.9641C12.6679 49.8548 10.6686 51.4899 8.4 51.3331ZM9.33333 45.7331H7.46667V43.8665H9.33333V45.7331ZM28 51.3331C25.7259 51.504 23.7166 49.8625 23.4313 47.5998H32.5641C32.2679 49.8548 30.2686 51.4899 28 51.3331ZM28.9333 45.7331H27.0667V43.8665H28.9333V45.7331ZM47.6 51.3331C45.3241 51.5068 43.312 49.8643 43.0268 47.5998H52.1641C51.8679 49.8548 49.8686 51.4899 47.6 51.3331ZM48.5333 45.7331H46.6667V43.8665H48.5333V45.7331ZM54.1333 41.9998H1.86667V40.1331H54.1333V41.9998Z"/>
        <path style="fill: var(--icon-color, #071f41)" d="M28 27.0669C25.4229 27.0669 23.3334 29.1564 23.3334 31.7336C23.3334 34.3107 25.4229 36.4002 28 36.4002C30.5772 36.4002 32.6667 34.3107 32.6667 31.7336C32.6635 29.1573 30.5763 27.0701 28 27.0669ZM28 34.5336C26.4538 34.5336 25.2 33.2798 25.2 31.7336C25.2 30.1873 26.4538 28.9336 28 28.9336C29.5463 28.9336 30.8 30.1873 30.8 31.7336C30.8 33.2798 29.5463 34.5336 28 34.5336Z"/>
        <path style="fill: var(--icon-color, #071f41)" d="M29.8666 31.7334C29.8666 32.7642 29.0308 33.6 28 33.6C26.9691 33.6 26.1333 32.7642 26.1333 31.7334C26.1333 30.7025 26.9691 29.8667 28 29.8667C29.0308 29.8667 29.8666 30.7025 29.8666 31.7334Z"/>
        <path style="fill: var(--icon-color, #071f41)" d="M32.6666 14H34.5333V15.8667H32.6666V14Z"/>
        <path style="fill: var(--icon-color, #071f41)" d="M32.6667 11.1999V12.1332H34.5333V11.1999C34.5333 10.7218 34.3465 6.5332 28 6.5332V8.39987C32.3308 8.39987 32.6667 10.5464 32.6667 11.1999Z"/>
        <path style="fill: var(--icon-color, #071f41)" d="M19.6 30.7998H21.4666V32.6665H19.6V30.7998Z"/>
        <path style="fill: var(--icon-color, #071f41)" d="M15.8667 30.7998H17.7334V32.6665H15.8667V30.7998Z"/>
        <path style="fill: var(--icon-color, #071f41)" d="M34.5333 30.7998H36.4V32.6665H34.5333V30.7998Z"/>
        <path style="fill: var(--icon-color, #071f41)" d="M38.2667 30.7998H40.1334V32.6665H38.2667V30.7998Z"/>
    </symbol>
    <symbol id="salary" fill="none" viewBox="0 0 56 56">
        <rect y="10" width="56" height="46" rx="20" style="fill: var(--icon-bg-color, #F5F6FB)"/>
        <path style="fill: var(--icon-color, #071f41)" d="M26.973 22.7919C26.7822 22.7245 26.5878 22.6543 26.3931 22.5822V19.0524C27.037 19.3076 27.4893 19.6651 27.5071 19.6794C27.9725 20.061 28.6594 19.9948 29.0433 19.5307C29.4284 19.0652 29.3632 18.3758 28.8977 17.9907C28.8337 17.9378 27.8175 17.1122 26.3932 16.7641V16.228C26.3932 15.6239 25.9034 15.1343 25.2995 15.1343C24.6955 15.1343 24.2057 15.6239 24.2057 16.228V16.7134C24.0899 16.7384 23.9736 16.7665 23.8565 16.8017C22.5991 17.1805 21.6914 18.2403 21.4282 19.6368C21.1726 20.9936 21.6147 22.3467 22.5546 23.0838C22.9835 23.4201 23.5062 23.7285 24.2058 24.0491V28.675C23.7105 28.6054 23.3391 28.4373 22.7474 28.0503C22.242 27.7195 21.5642 27.8611 21.2333 28.3668C20.9027 28.8723 21.0442 29.5501 21.5499 29.8809C22.5888 30.5605 23.3214 30.7992 24.2058 30.8754V31.5555C24.2058 32.1596 24.6956 32.6492 25.2996 32.6492C25.9035 32.6492 26.3933 32.1596 26.3933 31.5555V30.7706C28.2125 30.3096 29.3785 28.7557 29.6361 27.2237C29.9672 25.2531 28.897 23.4721 26.973 22.7919V22.7919ZM24.2057 21.5746C24.0973 21.5051 23.9962 21.4346 23.9045 21.3626C23.6093 21.1311 23.475 20.5879 23.5779 20.0419C23.6124 19.8588 23.752 19.3151 24.2057 19.0266V21.5746ZM27.4787 26.8612C27.3787 27.4555 27.0103 28.0801 26.3931 28.4328V24.9125C27.5802 25.4117 27.5506 26.4329 27.4787 26.8612Z"/>
        <path style="fill: var(--icon-color, #071f41)" d="M51.7903 23.4989L44.8438 18.9116V1.22412C44.8438 0.620043 44.354 0.130371 43.75 0.130371H17.5C16.896 0.130371 16.4062 0.620043 16.4062 1.22412V5.38037H12.25C11.646 5.38037 11.1562 5.87004 11.1562 6.47412V18.9117L4.20973 23.499C3.90327 23.7013 3.71875 24.0442 3.71875 24.4116V55.0366C3.71875 55.6407 4.20853 56 4.8125 56H23.0781C23.6821 56 24.1719 55.6407 24.1719 55.0366C24.1719 54.4325 23.6821 53.9429 23.0781 53.9429H7.45314L23.3994 37.9967L27.3973 40.6369C27.58 40.7575 27.79 40.8179 28 40.8179C28.21 40.8179 28.42 40.7575 28.6028 40.6369L32.6007 37.9967L48.547 53.9429H32.9219C32.3179 53.9429 31.8281 54.4325 31.8281 55.0366C31.8281 55.6407 32.3179 56 32.9219 56H51.1875C51.7915 56 52.2812 55.6407 52.2812 55.0366V24.4116C52.2812 24.0442 52.0967 23.7013 51.7903 23.4989V23.4989ZM49.2027 24.4116L44.8438 27.2902V21.5331L49.2027 24.4116ZM18.5938 2.31787H42.6562V28.7348L39.5938 30.7572V6.47412C39.5938 5.87004 39.104 5.38037 38.5 5.38037H18.5938V2.31787ZM11.1562 21.5331V27.2902L6.79733 24.4116L11.1562 21.5331ZM5.90625 52.3961V26.4447L21.536 36.7663L5.90625 52.3961ZM28 38.4134L13.3438 28.7347V7.56787H37.4062V32.2017L28 38.4134ZM50.0938 26.4447V52.3961L34.464 36.7662L50.0938 26.4447Z"/>
        <path style="fill: var(--icon-color, #071f41)" d="M28 53.9429C27.7123 53.9429 27.4302 54.0599 27.2267 54.2633C27.0233 54.4668 26.9062 54.749 26.9062 55.0366C26.9062 55.3243 27.0232 55.6065 27.2267 55.8099C27.4303 56 27.7123 56 28 56C28.2877 56 28.5698 56 28.7732 55.8099C28.9766 55.6065 29.0938 55.3243 29.0938 55.0366C29.0938 54.749 28.9767 54.4668 28.7732 54.2633C28.5698 54.0599 28.2877 53.9429 28 53.9429Z"/>
    </symbol>
    <symbol id="additional" fill="none" viewBox="0 0 56 56">
        <rect y="10" width="56" height="46" rx="20" style="fill: var(--icon-bg-color, #F5F6FB)"/>
        <path style="fill: var(--icon-color, #071f41)" d="M20.4233 33.9863C20.4233 33.5333 20.0562 33.166 19.603 33.166H11.6481C11.1949 33.166 10.8278 33.5333 10.8278 33.9863V39.2897C10.8278 39.7427 11.1949 40.11 11.6481 40.11H19.603C20.0562 40.11 20.4233 39.7427 20.4233 39.2897V33.9863ZM18.7827 38.4693H12.4684V34.8065H18.7827V38.4693Z"/>
        <path style="fill: var(--icon-color, #071f41)" d="M39.9326 38.3418H44.352C44.8051 38.3418 45.1723 37.9745 45.1723 37.5215C45.1723 37.0685 44.8051 36.7012 44.352 36.7012H39.9326C39.4794 36.7012 39.1122 37.0685 39.1122 37.5215C39.1122 37.9745 39.4794 38.3418 39.9326 38.3418Z"/>
        <path style="fill: var(--icon-color, #071f41)" d="M39.9326 34.8066H44.352C44.8051 34.8066 45.1723 34.4394 45.1723 33.9863C45.1723 33.5333 44.8051 33.166 44.352 33.166H39.9326C39.4794 33.166 39.1122 33.5333 39.1122 33.9863C39.1122 34.4394 39.4794 34.8066 39.9326 34.8066Z"/>
        <path style="fill: var(--icon-color, #071f41)" d="M47.8875 42.8337C47.4344 42.8337 47.0672 43.2009 47.0672 43.654V54.2054C47.0672 54.3623 46.9396 54.49 46.7826 54.49H9.21721C9.06026 54.49 8.93262 54.3623 8.93262 54.2054V36.0518C8.93262 35.5987 8.56545 35.2314 8.1123 35.2314C7.65916 35.2314 7.29199 35.5987 7.29199 36.0518V54.2053C7.29199 55.2669 8.15562 56 9.21721 56H46.7826C47.8441 56 48.7078 55.2669 48.7078 54.2053V43.6539C48.7078 43.2009 48.3406 42.8337 47.8875 42.8337Z"/>
        <path style="fill: var(--icon-color, #071f41)" d="M46.7827 27.973H33.2397V23.8122C37.4775 21.8323 40.4213 17.5297 40.4213 12.5518C40.4213 5.70259 34.8491 0.130371 28 0.130371C25.6229 0.130371 23.3124 0.804121 21.3182 2.07889C19.3777 3.31931 17.8216 5.06821 16.8182 7.13628C16.6205 7.54392 16.7907 8.03468 17.1983 8.23243C17.6062 8.43007 18.0966 8.25989 18.2944 7.85246C20.1142 4.10123 23.8332 1.771 28 1.771C33.9446 1.771 38.7807 6.60723 38.7807 12.5518C38.7807 18.4963 33.9446 23.3325 28 23.3325C22.0553 23.3325 17.2192 18.4963 17.2192 12.5518C17.2192 12.1329 17.2435 11.7108 17.2914 11.2972C17.3436 10.8472 17.0209 10.4401 16.5709 10.388C16.1204 10.3354 15.7138 10.6584 15.6617 11.1084C15.6066 11.5844 15.5786 12.0701 15.5786 12.5519C15.5786 17.5299 18.5224 21.8324 22.7602 23.8124V27.9732H9.21721C8.15573 27.9732 7.29199 28.8368 7.29199 29.8984V32.2048C7.29199 32.6578 7.65916 33.0251 8.1123 33.0251C8.56545 33.0251 8.93262 32.6578 8.93262 32.2048V29.8984C8.93262 29.7415 9.06026 29.6138 9.21721 29.6138H19.8936L27.3825 38.1726C27.5384 38.3506 27.7633 38.4527 28 38.4527C28.2366 38.4527 28.4615 38.3506 28.6174 38.1726L36.1063 29.6138H46.7827C46.9397 29.6138 47.0673 29.7415 47.0673 29.8984V39.8041C47.0673 40.2571 47.4345 40.6244 47.8876 40.6244C48.3408 40.6244 48.7079 40.2571 48.7079 39.8041V29.8984C48.7078 28.8366 47.8442 27.973 46.7827 27.973V27.973ZM28 36.3864L22.0737 29.6136H23.5804C24.0336 29.6136 24.4008 29.2463 24.4008 28.7933V24.4408C25.5406 24.7866 26.7487 24.9733 27.9998 24.9733C29.251 24.9733 30.4593 24.7866 31.5989 24.4408V28.7933C31.5989 29.2463 31.9661 29.6136 32.4193 29.6136H33.926L28 36.3864Z"/>
        <path style="fill: var(--icon-color, #071f41)" d="M11.6479 48.1753H13.8577C14.3108 48.1753 14.678 47.808 14.678 47.355C14.678 46.9019 14.3108 46.5347 13.8577 46.5347H11.6479C11.1948 46.5347 10.8276 46.9019 10.8276 47.355C10.8276 47.808 11.1949 48.1753 11.6479 48.1753V48.1753Z"/>
        <path style="fill: var(--icon-color, #071f41)" d="M19.603 46.5347H17.3933C16.9402 46.5347 16.573 46.9019 16.573 47.355C16.573 47.808 16.9402 48.1753 17.3933 48.1753H19.603C20.0562 48.1753 20.4233 47.808 20.4233 47.355C20.4233 46.9019 20.056 46.5347 19.603 46.5347Z"/>
        <path style="fill: var(--icon-color, #071f41)" d="M25.3483 48.1753C25.8014 48.1753 26.1686 47.808 26.1686 47.355C26.1686 46.9019 25.8014 46.5347 25.3483 46.5347H23.1385C22.6854 46.5347 22.3182 46.9019 22.3182 47.355C22.3182 47.808 22.6854 48.1753 23.1385 48.1753H25.3483Z"/>
        <path style="fill: var(--icon-color, #071f41)" d="M31.0935 48.1753C31.5466 48.1753 31.9138 47.808 31.9138 47.355C31.9138 46.9019 31.5466 46.5347 31.0935 46.5347H28.8838C28.4306 46.5347 28.0635 46.9019 28.0635 47.355C28.0635 47.808 28.4306 48.1753 28.8838 48.1753H31.0935Z"/>
        <path style="fill: var(--icon-color, #071f41)" d="M11.6479 52.5952H20.4869C20.94 52.5952 21.3072 52.2279 21.3072 51.7749C21.3072 51.3219 20.94 50.9546 20.4869 50.9546H11.6479C11.1948 50.9546 10.8276 51.3219 10.8276 51.7749C10.8276 52.2279 11.1949 52.5952 11.6479 52.5952Z"/>
        <path style="fill: var(--icon-color, #071f41)" d="M34.6927 49.5648C34.6927 51.2355 36.0521 52.5948 37.7228 52.5948C38.5936 52.5948 39.3792 52.225 39.9325 51.6348C40.4857 52.225 41.2713 52.5948 42.1422 52.5948C43.8129 52.5948 45.1722 51.2355 45.1722 49.5648C45.1722 47.894 43.8129 46.5347 42.1422 46.5347C41.2713 46.5347 40.4857 46.9045 39.9325 47.4947C39.3792 46.9045 38.5936 46.5347 37.7228 46.5347C36.0521 46.5347 34.6927 47.894 34.6927 49.5648ZM42.1423 48.1753C42.9084 48.1753 43.5317 48.7986 43.5317 49.5648C43.5317 50.3309 42.9084 50.9542 42.1423 50.9542C41.3761 50.9542 40.7529 50.3309 40.7529 49.5648C40.7529 48.7986 41.3761 48.1753 42.1423 48.1753ZM39.1123 49.5648C39.1123 50.3309 38.489 50.9542 37.7229 50.9542C36.9567 50.9542 36.3335 50.3309 36.3335 49.5648C36.3335 48.7986 36.9567 48.1753 37.7229 48.1753C38.489 48.1753 39.1123 48.7986 39.1123 49.5648Z"/>
        <path style="fill: var(--icon-color, #071f41)" d="M25.2824 16.845C24.9036 16.5969 24.3951 16.7034 24.1469 17.0824C23.8988 17.4614 24.0051 17.9699 24.3843 18.2179C25.445 18.9118 26.1688 19.1173 27.1055 19.169V20.0731C27.1055 20.5261 27.4727 20.8934 27.9258 20.8934C28.3789 20.8934 28.7461 20.5261 28.7461 20.0731V19.104C30.6055 18.7423 31.6915 17.2107 31.932 15.7799C32.2408 13.9431 31.2798 12.3459 29.4838 11.7111C29.2415 11.6254 28.9934 11.5354 28.7461 11.4418V7.50734C29.372 7.65467 29.745 7.97153 29.7771 7.99964C30.1103 8.30151 30.6253 8.27898 30.9307 7.94768C31.2379 7.61464 31.2169 7.09565 30.8838 6.78853C30.8367 6.74521 30.0437 6.03111 28.7461 5.83839V5.03076C28.7461 4.57773 28.3789 4.21045 27.9258 4.21045C27.4727 4.21045 27.1055 4.57773 27.1055 5.03076V5.90128C26.9806 5.92862 26.8538 5.96023 26.7242 5.99928C25.5418 6.35551 24.6583 7.36745 24.4185 8.64036C24.1998 9.8006 24.5713 10.9194 25.388 11.5599C25.8225 11.9007 26.3636 12.2129 27.1055 12.5427V17.5262C26.4586 17.48 26.0145 17.3239 25.2824 16.845V16.845ZM26.4006 10.2691C26.0676 10.008 25.9259 9.50026 26.0307 8.9442C26.1251 8.44348 26.4572 7.84137 27.1055 7.60217V10.7184C26.84 10.575 26.5998 10.4254 26.4006 10.2691ZM28.9371 13.2581C30.4745 13.8014 30.3796 15.1177 30.314 15.5081C30.1856 16.2725 29.6516 17.0829 28.7461 17.4017V13.1897C28.8096 13.2124 28.8718 13.235 28.9371 13.2581Z"/>
    </symbol>
</svg>