<svg version="1.1" xmlns="http://www.w3.org/2000/svg">
    <symbol id="load" viewBox="0 0 36 36">
        <circle fill="var(--accent-color, #dfac14)" fill-opacity="0.4" cx="18" cy="4" r="3"/>
        <circle fill="var(--accent-color, #dfac14)" fill-opacity="0.55" cx="27.9" cy="8.1" r="3"/>
        <circle fill="var(--accent-color, #dfac14)" fill-opacity="0.7" cx="32" cy="18" r="3"/>
        <circle fill="var(--accent-color, #dfac14)" fill-opacity="0.85" cx="27.9" cy="27.9" r="3"/>
        <circle fill="var(--accent-color, #dfac14)" fill-opacity="0.95" cx="18" cy="32" r="3"/>
        <circle fill="var(--accent-color, #dfac14)" fill-opacity="1" cx="8.1" cy="27.9" r="3"/>
        <circle fill="var(--accent-color, #dfac14)" fill-opacity="0" cx="4" cy="18" r="3"/>
    </symbol>
    <symbol id="logo" viewBox="0 0 90 31">
        <rect x="6" y="5" width="33" height="26" rx="8" fill="#FB7C2F"/>
        <rect width="33" height="26" rx="8" fill="#FB7C2F" fill-opacity="0.2"/>
        <path fill-rule="evenodd" clip-rule="evenodd" d="M23.1335 20.5701L24.419 19.1596L27.1865 23.9982H30.9003L26.508 16.7492L30.9003 11H27.0258L24.2226 15.0798L23.1335 16.7314V11H20V23.9982H23.1335V20.5701ZM37.712 23.1323C37.7953 23.5132 37.8906 23.8018 37.9977 23.9982H41.0062V23.8465C40.7444 23.3763 40.6075 22.6978 40.5956 21.811V17.5348C40.5777 16.4874 40.2117 15.6631 39.4975 15.062C38.7833 14.4608 37.8102 14.1603 36.5782 14.1603C35.3463 14.1603 34.3315 14.4519 33.534 15.0352C32.7425 15.6184 32.3467 16.3772 32.3467 17.3116H35.3552C35.3552 16.6094 35.7123 16.2582 36.4265 16.2582C37.1942 16.2582 37.5781 16.7016 37.5781 17.5884V18.0973H36.6497C35.1737 18.0973 34.0488 18.3651 33.2751 18.9007C32.5014 19.4364 32.1146 20.2279 32.1146 21.2754C32.1146 22.1086 32.433 22.802 33.0698 23.3555C33.7066 23.903 34.4803 24.1768 35.3909 24.1768C36.3848 24.1768 37.1585 23.8286 37.712 23.1323ZM37.0425 21.7932C36.7985 21.9539 36.489 22.0342 36.114 22.0342C35.8283 22.0342 35.5933 21.9509 35.4088 21.7843C35.2243 21.6117 35.132 21.3885 35.132 21.1147C35.132 20.1744 35.6558 19.7042 36.7032 19.7042H37.5781V21.2486C37.471 21.451 37.2924 21.6325 37.0425 21.7932ZM51.237 19.24C51.237 20.7398 50.8977 21.939 50.2193 22.8377C49.5467 23.7304 48.6361 24.1768 47.4875 24.1768C46.6007 24.1768 45.8716 23.8524 45.3003 23.2037V27.712H42.2918V14.3388H45.1039L45.1932 15.2316C45.7705 14.5174 46.5293 14.1603 47.4696 14.1603C48.6599 14.1603 49.5854 14.6007 50.246 15.4815C50.9067 16.3564 51.237 17.5616 51.237 19.0971V19.24ZM48.2285 19.0525C48.2285 17.3384 47.7285 16.4814 46.7287 16.4814C46.0145 16.4814 45.5383 16.7373 45.3003 17.2492V21.0522C45.5622 21.5879 46.0442 21.8557 46.7465 21.8557C47.7047 21.8557 48.1987 21.0284 48.2285 19.3739V19.0525ZM56.7453 24.1768C57.8285 24.1768 58.6885 23.7691 59.3253 22.9537L59.4146 23.9982H62.2356V14.3388H59.2093V21.1147C58.9176 21.6087 58.4266 21.8557 57.7362 21.8557C56.9328 21.8557 56.531 21.442 56.531 20.6148V14.3388H53.5225V20.5969C53.5225 21.7515 53.7933 22.6383 54.3349 23.2573C54.8825 23.8703 55.6859 24.1768 56.7453 24.1768ZM68.949 21.2843C68.949 21.0284 68.8151 20.8231 68.5473 20.6683C68.2794 20.5136 67.7706 20.3529 67.0207 20.1863C66.2708 20.0196 65.6518 19.8024 65.1638 19.5346C64.6758 19.2608 64.3038 18.9305 64.0479 18.5436C63.792 18.1568 63.664 17.7134 63.664 17.2134C63.664 16.3267 64.03 15.5976 64.7621 15.0262C65.3768 14.5415 66.1509 14.2603 67.0845 14.1825V11.9887H68.5185V14.2111C69.3917 14.3171 70.1215 14.5888 70.7077 15.0262C71.4814 15.6035 71.8683 16.3624 71.8683 17.3027H68.8508C68.8508 16.529 68.4431 16.1422 67.6278 16.1422C67.3123 16.1422 67.0475 16.2314 66.8332 16.41C66.619 16.5826 66.5118 16.7998 66.5118 17.0617C66.5118 17.3295 66.6428 17.5467 66.9046 17.7134C67.1665 17.88 67.5831 18.0169 68.1545 18.124C68.7318 18.2312 69.2377 18.3591 69.6721 18.5079C71.1243 19.0078 71.8504 19.9036 71.8504 21.195C71.8504 22.0759 71.4576 22.793 70.672 23.3465C70.0855 23.7629 69.3676 24.0227 68.5185 24.1258V26.3284H67.0845V24.1536C66.4774 24.1012 65.9234 23.9601 65.4227 23.7304C64.774 23.4328 64.2681 23.0281 63.905 22.5163C63.542 22.0045 63.3605 21.4658 63.3605 20.9004H66.1726C66.1845 21.3468 66.3333 21.6742 66.619 21.8825C66.9046 22.0848 67.2707 22.186 67.717 22.186C68.1277 22.186 68.4342 22.1027 68.6365 21.936C68.8449 21.7694 68.949 21.5521 68.949 21.2843ZM77.7694 14.3388V11.9374H74.7609V14.3388H73.5289V16.4278H74.7609V21.2218C74.7609 22.2157 75.0078 22.9567 75.5018 23.4447C75.9958 23.9328 76.7606 24.1768 77.7962 24.1768C78.3854 24.1768 78.9508 24.0905 79.4924 23.9179V21.7664C79.29 21.8021 79.04 21.82 78.7425 21.82C78.3556 21.82 78.0967 21.7485 77.9658 21.6057C77.8348 21.4629 77.7694 21.2099 77.7694 20.8469V16.4278H79.3584V14.3388H77.7694ZM86.9915 23.9982C86.8843 23.8018 86.7891 23.5132 86.7058 23.1323C86.1523 23.8286 85.3786 24.1768 84.3847 24.1768C83.4741 24.1768 82.7004 23.903 82.0636 23.3555C81.4268 22.802 81.1083 22.1086 81.1083 21.2754C81.1083 20.2279 81.4952 19.4364 82.2689 18.9007C83.0426 18.3651 84.1675 18.0973 85.6434 18.0973H86.5719V17.5884C86.5719 16.7016 86.188 16.2582 85.4203 16.2582C84.7061 16.2582 84.349 16.6094 84.349 17.3116H81.3405C81.3405 16.3772 81.7362 15.6184 82.5278 15.0352C83.3253 14.4519 84.34 14.1603 85.572 14.1603C86.804 14.1603 87.7771 14.4608 88.4913 15.062C89.2055 15.6631 89.5715 16.4874 89.5893 17.5348V21.811C89.6012 22.6978 89.7381 23.3763 90 23.8465V23.9982H86.9915ZM85.1078 22.0342C85.4827 22.0342 85.7922 21.9539 86.0362 21.7932C86.2862 21.6325 86.4648 21.451 86.5719 21.2486V19.7042H85.697C84.6495 19.7042 84.1258 20.1744 84.1258 21.1147C84.1258 21.3885 84.218 21.6117 84.4025 21.7843C84.587 21.9509 84.8221 22.0342 85.1078 22.0342Z" fill="black"/>
    </symbol>
    <symbol id="logout" viewBox="0 0 16 16">
        <path d="M9.99998 14H1.99998V1.99998H9.99998V2.99998H12V0H0V16H12V13H10V14H9.99998Z" fill="#CBCCD0"/>
        <path d="M12.293 4.29297L10.8789 5.70702L12.1719 6.99998H7V8.99999H12.1719L10.8789 10.293L12.293 11.707L16 7.99997L12.293 4.29297Z" fill="#CBCCD0"/>
    </symbol>
    <symbol id="google" viewBox="0 0 18 18">
        <path d="M17.6589 7.33402C17.737 7.33402 17.8003 7.39888 17.8003 7.47889V9C17.8003 9.56932 17.7487 10.126 17.6497 10.666C16.8835 14.8604 13.2752 18.0303 8.95014 17.9998C4.09707 17.9655 0.213154 13.9498 0.223899 8.97972C0.234576 4.01857 4.16518 0 9.0121 0C11.3867 0 13.5413 0.964758 15.1232 2.53188C15.1803 2.58845 15.1818 2.68168 15.1256 2.7392L13.0242 4.89115C12.9701 4.94656 12.8827 4.948 12.8273 4.89396C11.8345 3.92614 10.4912 3.33197 9.0121 3.33197C5.95781 3.33197 3.49831 5.83284 3.47757 8.96066C3.45673 12.109 5.94271 14.668 9.0121 14.668C11.5025 14.668 13.6089 12.9832 14.3034 10.666H9.15357C9.07544 10.666 9.0121 10.6011 9.0121 10.5211V7.47886C9.0121 7.39884 9.07544 7.33398 9.15357 7.33398H17.6589V7.33402Z" fill="#2196F3"/>
        <path d="M17.6585 7.33398H16.5976C16.6757 7.33398 16.739 7.39885 16.739 7.47886V8.99997C16.739 9.56929 16.6874 10.126 16.5884 10.666C15.8575 14.6675 12.5397 17.7365 8.48071 17.9837C8.63602 17.9931 8.79235 17.9986 8.94979 17.9997C13.2749 18.0303 16.8832 14.8604 17.6493 10.666C17.7484 10.126 17.8 9.56929 17.8 8.99997V7.47883C17.8 7.39885 17.7366 7.33398 17.6585 7.33398Z" fill="#1E88E5"/>
        <path d="M3.98457 6.62632L1.31555 4.65138C2.81292 1.87787 5.69834 0 9.01171 0C11.3864 0 13.5409 0.964758 15.1228 2.53188C15.1799 2.58845 15.1814 2.68168 15.1252 2.7392L13.0238 4.89115C12.9698 4.94645 12.8824 4.94817 12.8271 4.89424C11.8343 3.92625 10.4909 3.332 9.01171 3.332C6.78266 3.332 4.86126 4.68144 3.98457 6.62632Z" fill="#F44336"/>
        <path d="M3.21411 6.05622L3.98463 6.62635C4.78484 4.85117 6.45556 3.57268 8.43601 3.36297C8.45091 3.36132 8.46522 3.35931 8.48039 3.35784C8.30611 3.34089 8.12948 3.33203 7.95083 3.33203C5.9372 3.33203 4.18229 4.41917 3.21411 6.05622Z" fill="#E53935"/>
        <path d="M14.0619 2.53188C14.119 2.58845 14.1205 2.68168 14.0643 2.73923L12.3587 4.4859C12.5221 4.61317 12.6785 4.74929 12.8269 4.894C12.8824 4.94803 12.9698 4.94659 13.0239 4.89118L15.1252 2.73923C15.1814 2.68168 15.1799 2.58848 15.1228 2.53188C13.541 0.964758 11.3864 0 9.01176 0C8.83355 0 8.65676 0.00608203 8.4812 0.0168047C10.6453 0.148816 12.5987 1.08232 14.0619 2.53188Z" fill="#E53935"/>
        <path d="M15.4585 15.1164C13.8537 16.89 11.5592 18 9.01182 18C5.57116 18 2.59236 15.9751 1.14978 13.0252L3.87465 11.1129C4.69233 13.1965 6.68445 14.668 9.01182 14.668C10.4724 14.668 11.8007 14.0885 12.7895 13.1418L15.4585 15.1164Z" fill="#4CAF50"/>
        <path d="M3.87467 11.1129L3.07117 11.6768C4.0044 13.4572 5.8396 14.668 7.95087 14.668C8.12941 14.668 8.3059 14.659 8.48012 14.6421C6.38437 14.4375 4.62929 13.0359 3.87467 11.1129Z" fill="#43A047"/>
        <path d="M9.01181 18.0001C11.5592 18.0001 13.8537 16.89 15.4585 15.1165L14.8048 14.6328C13.2979 16.5534 11.0373 17.8275 8.48267 17.9837C8.65774 17.9944 8.83413 18.0001 9.01181 18.0001Z" fill="#43A047"/>
        <path d="M3.47711 8.99998C3.47711 9.74677 3.61821 10.4599 3.87461 11.1129L1.14971 13.0252C0.557017 11.8141 0.223511 10.4469 0.223511 8.99998C0.223511 7.42273 0.619599 5.94034 1.31559 4.65137L3.9846 6.6263C3.65889 7.3481 3.47711 8.15251 3.47711 8.99998Z" fill="#FFC107"/>
        <path d="M3.0711 11.6768L3.8746 11.1129C3.6182 10.4599 3.47711 9.74676 3.47711 8.99997C3.47711 8.15249 3.65888 7.34808 3.98459 6.62628L3.21408 6.05615C2.71373 6.90219 2.42334 7.89497 2.41627 8.96066C2.40975 9.94342 2.64754 10.8688 3.0711 11.6768Z" fill="#FFB300"/>
    </symbol>
    <symbol id="eye" viewBox="0 0 32 32">
        <path d="M16 6c-6.979 0-13.028 4.064-16 10 2.972 5.936 9.021 10 16 10s13.027-4.064 16-10c-2.972-5.936-9.021-10-16-10zM23.889 11.303c1.88 1.199 3.473 2.805 4.67 4.697-1.197 1.891-2.79 3.498-4.67 4.697-2.362 1.507-5.090 2.303-7.889 2.303s-5.527-0.796-7.889-2.303c-1.88-1.199-3.473-2.805-4.67-4.697 1.197-1.891 2.79-3.498 4.67-4.697 0.122-0.078 0.246-0.154 0.371-0.228-0.311 0.854-0.482 1.776-0.482 2.737 0 4.418 3.582 8 8 8s8-3.582 8-8c0-0.962-0.17-1.883-0.482-2.737 0.124 0.074 0.248 0.15 0.371 0.228v0zM16 13c0 1.657-1.343 3-3 3s-3-1.343-3-3 1.343-3 3-3 3 1.343 3 3z" fill="var(--main-color, grey)"></path>
    </symbol>
     <symbol id="closedEye" viewBox="0 0 32 32">
        <path d="M29.561 0.439c-0.586-0.586-1.535-0.586-2.121 0l-6.318 6.318c-1.623-0.492-3.342-0.757-5.122-0.757-6.979 0-13.028 4.064-16 10 1.285 2.566 3.145 4.782 5.407 6.472l-4.968 4.968c-0.586 0.586-0.586 1.535 0 2.121 0.293 0.293 0.677 0.439 1.061 0.439s0.768-0.146 1.061-0.439l27-27c0.586-0.586 0.586-1.536 0-2.121zM13 10c1.32 0 2.44 0.853 2.841 2.037l-3.804 3.804c-1.184-0.401-2.037-1.521-2.037-2.841 0-1.657 1.343-3 3-3zM3.441 16c1.197-1.891 2.79-3.498 4.67-4.697 0.122-0.078 0.246-0.154 0.371-0.228-0.311 0.854-0.482 1.776-0.482 2.737 0 1.715 0.54 3.304 1.459 4.607l-1.904 1.904c-1.639-1.151-3.038-2.621-4.114-4.323z" fill="var(--main-color, grey)"></path>
        <path d="M24 13.813c0-0.849-0.133-1.667-0.378-2.434l-10.056 10.056c0.768 0.245 1.586 0.378 2.435 0.378 4.418 0 8-3.582 8-8z" fill="var(--main-color,grey)"></path>
        <path d="M25.938 9.062l-2.168 2.168c0.040 0.025 0.079 0.049 0.118 0.074 1.88 1.199 3.473 2.805 4.67 4.697-1.197 1.891-2.79 3.498-4.67 4.697-2.362 1.507-5.090 2.303-7.889 2.303-1.208 0-2.403-0.149-3.561-0.439l-2.403 2.403c1.866 0.671 3.873 1.036 5.964 1.036 6.978 0 13.027-4.064 16-10-1.407-2.81-3.504-5.2-6.062-6.938z" fill="var(--main-color,grey)"></path>
    </symbol>
    <symbol id="chart" viewBox="0 0 24 24">
        <path d="M5 9.2H8V19H5V9.2ZM10.6 5H13.4V19H10.6V5ZM16.2 13H19V19H16.2V13Z" />
    </symbol>
    <symbol id="goBack" viewBox="0 0 18 12">
        <path d="M18 6H3.83l3.58-3.59L6 1 0 7l6 6 1.41-1.41L3.83 8H18V5Z" fill="var(--arrow-color, #FF751D)" />
    </symbol>
    <symbol id="calendar" viewBox="0 0 20 20">
        <path d="M17.4754 2.0669H16.1634V1.74585C16.1634 1.42226 15.9011 1.15991 15.5775 1.15991C15.2539 1.15991 14.9916 1.42226 14.9916 1.74585V2.0669H13.3747V1.74585C13.3747 1.42226 13.1123 1.15991 12.7887 1.15991C12.4652 1.15991 12.2028 1.42226 12.2028 1.74585V2.0669H10.5859V1.74585C10.5859 1.42226 10.3236 1.15991 10 1.15991C9.67641 1.15991 9.41406 1.42226 9.41406 1.74585V2.0669H7.79719V1.74585C7.79719 1.42226 7.53484 1.15991 7.21125 1.15991C6.88766 1.15991 6.62531 1.42226 6.62531 1.74585V2.0669H5.00844V1.74585C5.00844 1.42226 4.74609 1.15991 4.4225 1.15991C4.09891 1.15991 3.83656 1.42226 3.83656 1.74585V2.0669H2.52461C1.13254 2.0669 0 3.19944 0 4.59147V16.3155C0 17.7076 1.13254 18.8401 2.52461 18.8401H17.4754C18.8675 18.8401 20 17.7075 20 16.3155V4.59147C20 3.19944 18.8675 2.0669 17.4754 2.0669ZM18.8281 16.3155C18.8281 17.0614 18.2213 17.6682 17.4754 17.6682H2.52461C1.77871 17.6682 1.17188 17.0614 1.17188 16.3155V6.73233H18.8281V16.3155ZM18.8281 5.56046H1.17188V4.59147C1.17188 3.84562 1.77871 3.23878 2.52461 3.23878H3.83656V3.4653C3.83656 3.7889 4.09891 4.05124 4.4225 4.05124C4.74609 4.05124 5.00844 3.7889 5.00844 3.4653V3.23878H6.62531V3.4653C6.62531 3.7889 6.88766 4.05124 7.21125 4.05124C7.53484 4.05124 7.79719 3.7889 7.79719 3.4653V3.23878H9.41406V3.4653C9.41406 3.7889 9.67641 4.05124 10 4.05124C10.3236 4.05124 10.5859 3.7889 10.5859 3.4653V3.23878H12.2028V3.4653C12.2028 3.7889 12.4652 4.05124 12.7887 4.05124C13.1123 4.05124 13.3747 3.7889 13.3747 3.4653V3.23878H14.9916V3.4653C14.9916 3.7889 15.2539 4.05124 15.5775 4.05124C15.9011 4.05124 16.1634 3.7889 16.1634 3.4653V3.23878H17.4754C18.2213 3.23878 18.8281 3.84562 18.8281 4.59147V5.56046Z" fill="#52555F"/>
        <path d="M6.5318 7.98157H4.21973C3.89613 7.98157 3.63379 8.24391 3.63379 8.5675V10.9596C3.63379 11.2832 3.89613 11.5456 4.21973 11.5456H6.5318C6.85539 11.5456 7.11773 11.2832 7.11773 10.9596V8.5675C7.11773 8.24391 6.85543 7.98157 6.5318 7.98157ZM5.94586 10.3737H4.80566V9.15344H5.94586V10.3737Z" fill="#52555F"/>
        <path d="M11.1561 7.98157H8.84399C8.5204 7.98157 8.25806 8.24391 8.25806 8.5675V10.9596C8.25806 11.2832 8.5204 11.5456 8.84399 11.5456H11.1561C11.4797 11.5456 11.742 11.2832 11.742 10.9596V8.5675C11.742 8.24391 11.4797 7.98157 11.1561 7.98157ZM10.5701 10.3737H9.42993V9.15344H10.5701V10.3737Z" fill="#52555F"/>
        <path d="M15.7802 7.98157H13.4681C13.1445 7.98157 12.8822 8.24391 12.8822 8.5675V10.9596C12.8822 11.2832 13.1445 11.5456 13.4681 11.5456H15.7802C16.1038 11.5456 16.3661 11.2832 16.3661 10.9596V8.5675C16.3661 8.24391 16.1038 7.98157 15.7802 7.98157ZM15.1943 10.3737H14.0541V9.15344H15.1943V10.3737Z" fill="#52555F"/>
        <path d="M6.5318 12.5258H4.21973C3.89613 12.5258 3.63379 12.7881 3.63379 13.1117V15.5038C3.63379 15.8274 3.89613 16.0898 4.21973 16.0898H6.5318C6.85539 16.0898 7.11773 15.8274 7.11773 15.5038V13.1117C7.11773 12.7881 6.85543 12.5258 6.5318 12.5258ZM5.94586 14.9179H4.80566V13.6977H5.94586V14.9179Z" fill="#52555F"/>
        <path d="M11.1561 12.5258H8.84399C8.5204 12.5258 8.25806 12.7881 8.25806 13.1117V15.5038C8.25806 15.8274 8.5204 16.0898 8.84399 16.0898H11.1561C11.4797 16.0898 11.742 15.8274 11.742 15.5038V13.1117C11.742 12.7881 11.4797 12.5258 11.1561 12.5258ZM10.5701 14.9179H9.42993V13.6977H10.5701V14.9179Z" fill="#52555F"/>
        <path d="M15.7802 12.5258H13.4681C13.1445 12.5258 12.8822 12.7881 12.8822 13.1117V15.5038C12.8822 15.8274 13.1445 16.0898 13.4681 16.0898H15.7802C16.1038 16.0898 16.3661 15.8274 16.3661 15.5038V13.1117C16.3661 12.7881 16.1038 12.5258 15.7802 12.5258ZM15.1943 14.9179H14.0541V13.6977H15.1943V14.9179Z" fill="#52555F"/>
    </symbol>
    <symbol id="calculator" viewBox="0 0 20 20">
        <path d="M17.0312 0H2.96875C1.99949 0 1.21094 0.788555 1.21094 1.75781V18.2422C1.21094 19.2114 1.99949 20 2.96875 20H17.0312C18.0005 20 18.7891 19.2114 18.7891 18.2422V1.75781C18.7891 0.788555 18.0005 0 17.0312 0ZM17.6172 18.2422C17.6172 18.5653 17.3543 18.8281 17.0312 18.8281H2.96875C2.64566 18.8281 2.38281 18.5653 2.38281 18.2422V1.75781C2.38281 1.43473 2.64566 1.17188 2.96875 1.17188H17.0312C17.3543 1.17188 17.6172 1.43473 17.6172 1.75781V18.2422Z" fill="#52555F"/>
        <path d="M15.8594 2.34375H4.14062C3.81703 2.34375 3.55469 2.60609 3.55469 2.92969V7.69531C3.55469 8.01891 3.81703 8.28125 4.14062 8.28125H15.8594C16.183 8.28125 16.4453 8.01891 16.4453 7.69531V2.92969C16.4453 2.60609 16.183 2.34375 15.8594 2.34375ZM15.2734 7.10938H4.72656V3.51562H15.2734V7.10938Z" fill="#52555F"/>
        <path d="M6.48438 9.45312H4.14062C3.81703 9.45312 3.55469 9.71547 3.55469 10.0391V12.3828C3.55469 12.7064 3.81703 12.9688 4.14062 12.9688H6.48438C6.80797 12.9688 7.07031 12.7064 7.07031 12.3828V10.0391C7.07031 9.71547 6.80797 9.45312 6.48438 9.45312ZM5.89844 11.7969H4.72656V10.625H5.89844V11.7969Z" fill="#52555F"/>
        <path d="M6.48438 14.1406H4.14062C3.81703 14.1406 3.55469 14.403 3.55469 14.7266V17.0703C3.55469 17.3939 3.81703 17.6562 4.14062 17.6562H6.48438C6.80797 17.6562 7.07031 17.3939 7.07031 17.0703V14.7266C7.07031 14.403 6.80797 14.1406 6.48438 14.1406ZM5.89844 16.4844H4.72656V15.3125H5.89844V16.4844Z" fill="#52555F"/>
        <path d="M11.1719 9.45312H8.82812C8.50453 9.45312 8.24219 9.71547 8.24219 10.0391V12.3828C8.24219 12.7064 8.50453 12.9688 8.82812 12.9688H11.1719C11.4955 12.9688 11.7578 12.7064 11.7578 12.3828V10.0391C11.7578 9.71547 11.4955 9.45312 11.1719 9.45312ZM10.5859 11.7969H9.41406V10.625H10.5859V11.7969Z" fill="#52555F"/>
        <path d="M11.1719 14.1406H8.82812C8.50453 14.1406 8.24219 14.403 8.24219 14.7266V17.0703C8.24219 17.3939 8.50453 17.6562 8.82812 17.6562H11.1719C11.4955 17.6562 11.7578 17.3939 11.7578 17.0703V14.7266C11.7578 14.403 11.4955 14.1406 11.1719 14.1406ZM10.5859 16.4844H9.41406V15.3125H10.5859V16.4844Z" fill="#52555F"/>
        <path d="M15.8594 9.45312H13.5156C13.192 9.45312 12.9297 9.71547 12.9297 10.0391V17.0703C12.9297 17.3939 13.192 17.6562 13.5156 17.6562H15.8594C16.183 17.6562 16.4453 17.3939 16.4453 17.0703V10.0391C16.4453 9.71547 16.183 9.45312 15.8594 9.45312ZM15.2734 16.4844H14.1016V10.625H15.2734V16.4844Z" fill="#52555F"/>
    </symbol>
    <symbol id="arrowDown" width="12" height="7" fill="none" viewBox="0 0 12 7">
        <path d="M1 1L6 5L11 1" stroke="#C7CCDC" stroke-width="2"/>
    </symbol>
    <symbol id="arrowUp" width="12" height="7" fill="none" viewBox="0 0 12 7">
        <path d="M1 5L5 1L11 5" stroke="#C7CCDC" stroke-width="2"/>
    </symbol>
    <symbol id="basket" fill="none" viewBox="0 0 18 18">
        <path d="M16.308 4.02333L15.9106 2.832C15.7592 2.37827 15.3361 2.07339 14.8579 2.07339H11.5177V0.985886C11.5177 0.442337 11.0758 0 10.5324 0H7.47348C6.93021 0 6.48815 0.442337 6.48815 0.985886V2.07339H3.14803C2.66971 2.07339 2.2466 2.37827 2.09526 2.832L1.69783 4.02333C1.60733 4.29456 1.6532 4.59489 1.82033 4.82684C1.98746 5.05879 2.25786 5.19736 2.54378 5.19736H2.9592L3.87354 16.5038C3.94152 17.3427 4.65343 18 5.49457 18H12.6968C13.5378 18 14.2499 17.3427 14.3177 16.5037L15.232 5.19736H15.4621C15.748 5.19736 16.0184 5.05879 16.1855 4.82698C16.3526 4.59503 16.3985 4.29456 16.308 4.02333ZM7.54284 1.05469H10.463V2.07339H7.54284V1.05469ZM13.2664 16.4187C13.2425 16.7141 12.9923 16.9453 12.6968 16.9453H5.49457C5.19904 16.9453 4.94883 16.7141 4.92493 16.4187L4.01732 5.19736H14.1739L13.2664 16.4187ZM2.76996 4.14267L3.09584 3.16571C3.10326 3.14319 3.12427 3.12808 3.14803 3.12808H14.8579C14.8817 3.12808 14.9026 3.14319 14.9101 3.16571L15.236 4.14267H2.76996Z" fill="var(--basket-color, #52555F)"/>
        <path d="M11.5845 16.3811C11.5938 16.3816 11.6031 16.3818 11.6124 16.3818C11.891 16.3818 12.1239 16.1634 12.1385 15.8819L12.6337 6.37568C12.6488 6.08482 12.4252 5.83667 12.1345 5.82156C11.843 5.80604 11.5956 6.02989 11.5804 6.32075L11.0853 15.827C11.0702 16.1178 11.2936 16.366 11.5845 16.3811Z" fill="var(--basket-color, #52555F)"/>
        <path d="M5.89105 15.8835C5.90643 16.1646 6.13906 16.3821 6.41715 16.3821C6.42677 16.3821 6.43665 16.3819 6.4464 16.3813C6.73713 16.3655 6.96001 16.117 6.94422 15.8261L6.42553 6.31991C6.40974 6.02905 6.16117 5.80616 5.87031 5.82209C5.57959 5.83789 5.3567 6.08645 5.37249 6.37731L5.89105 15.8835Z" fill="var(--basket-color, #52555F)"/>
        <path d="M9.00891 16.3822C9.30019 16.3822 9.53625 16.1461 9.53625 15.8548V6.34863C9.53625 6.05736 9.30019 5.82129 9.00891 5.82129C8.71764 5.82129 8.48157 6.05736 8.48157 6.34863V15.8548C8.48157 16.1461 8.71764 16.3822 9.00891 16.3822Z" fill="var(--basket-color, #52555F)"/>
    </symbol>
    <symbol id="arrowLeft" fill="none" viewBox="0 0 7 17">
        <path d="M6 6L2 11L6 16" stroke="#FF751D" stroke-width="2"/>
    </symbol>
    <symbol id="arrowRight" fill="none" viewBox="0 0 7 17">
        <path d="M1 6L5 11L1 16" stroke="#FF751D" stroke-width="2"/>
    </symbol>
    <symbol id="products" fill="none" viewBox="0 0 56 56">
        <path style="fill: var(--icon-color, #071f41)" d="M22.4633 21.1923C21.9894 20.6114 21.3148 20.2712 20.6124 20.259C19.1997 20.2387 18.031 21.5002 18.007 23.0812C17.9993 23.5909 18.362 24.011 18.8169 24.0196C18.8218 24.0197 18.8264 24.0197 18.8312 24.0197C19.2798 24.0197 19.6472 23.6167 19.6547 23.1124C19.6632 22.5477 20.0776 22.0946 20.5866 22.1045C20.8407 22.1089 21.075 22.227 21.2465 22.4372C21.5535 22.8136 22.0748 22.8399 22.4106 22.4961C22.7466 22.1525 22.7702 21.5686 22.4633 21.1923Z"/>
        <path style="fill: var(--icon-color, #071f41)" d="M26.8471 24.2001C26.5945 23.5352 26.1029 23.0104 25.4979 22.7602C24.2812 22.2576 22.925 22.9561 22.4742 24.3171C22.3159 24.7951 22.5336 25.3261 22.9601 25.5034C23.0546 25.5427 23.1514 25.5613 23.2466 25.5613C23.5813 25.5613 23.896 25.3312 24.0192 24.9591C24.1546 24.5503 24.5625 24.3411 24.9272 24.4919C25.1106 24.5677 25.2539 24.7206 25.3304 24.9224C25.5085 25.3913 25.9926 25.6101 26.4112 25.4105C26.8301 25.2111 27.0251 24.6692 26.8471 24.2001Z"/>
        <path style="fill: var(--icon-color, #071f41)" d="M32.1576 16.027C31.8355 15.6668 31.3138 15.6676 30.9924 16.0283L30.2157 16.9C29.8943 17.2608 29.8948 17.8451 30.2169 18.205C30.3776 18.3848 30.5883 18.4746 30.7989 18.4746C31.01 18.4746 31.2212 18.3843 31.3821 18.2037L32.1589 17.332C32.4803 16.9713 32.4798 16.3869 32.1576 16.027Z"/>
        <path style="fill: var(--icon-color, #071f41)" d="M27.0314 27.9404H25.9332C25.478 27.9404 25.1092 28.3536 25.1092 28.8633C25.1092 29.3729 25.478 29.7861 25.9332 29.7861H27.0314C27.4865 29.7861 27.8553 29.3729 27.8553 28.8633C27.8553 28.3536 27.4865 27.9404 27.0314 27.9404Z"/>
        <path style="fill: var(--icon-color, #071f41)" d="M35.4518 27.9404H34.3535C33.8983 27.9404 33.5295 28.3536 33.5295 28.8633C33.5295 29.3729 33.8984 29.7861 34.3535 29.7861H35.4518C35.9068 29.7861 36.2757 29.3729 36.2757 28.8633C36.2757 28.3536 35.9068 27.9404 35.4518 27.9404Z"/>
        <path style="fill: var(--icon-color, #071f41)" d="M55.6884 44.229L55.4786 42.9421C55.3449 42.1198 54.713 41.5229 53.9762 41.5229C53.8837 41.5229 53.7905 41.5326 53.6988 41.5517L49.4277 42.4434L51.3619 40.9739C51.8688 40.5889 52.125 39.9002 52.0145 39.2169C51.9838 39.0298 51.9262 38.8502 51.8428 38.6821L51.2575 37.5042C51.0569 37.0995 50.7149 36.7988 50.3201 36.6797C50.1268 36.6211 49.9246 36.608 49.7274 36.6372C49.9428 35.2863 50.0538 33.9066 50.0538 32.5021C50.0538 31.8789 49.7241 31.3426 49.253 31.1044C49.8685 29.4407 49.9105 27.5361 49.3021 25.7919C49.2528 25.65 49.1795 25.5234 49.0847 25.4155C48.9906 25.3086 48.8805 25.2259 48.7555 25.1689C48.0265 24.8389 47.2602 24.6717 46.4781 24.6717C46.3781 24.6717 46.2785 24.6746 46.1793 24.68C46.0676 22.1246 44.2066 20.0845 41.9346 20.0845C41.6354 20.0845 41.3437 20.1207 41.0619 20.1881C41.2576 18.8574 41.1424 17.4654 40.6864 16.1584C40.6374 16.0148 40.5638 15.8858 40.4638 15.7704C40.3675 15.661 40.2546 15.5766 40.1294 15.5201C39.344 15.1646 38.5186 14.9844 37.676 14.9844C36.4067 14.9844 35.1925 15.39 34.1443 16.1439C33.7613 14.8832 33.1298 13.6997 32.2474 12.6946C31.989 12.4004 31.6452 12.2383 31.2795 12.2383C30.9137 12.2383 30.5699 12.4004 30.3112 12.6949L26.4104 17.138C25.6885 16.4063 24.7386 15.9689 23.7075 15.9689C23.4736 15.9689 23.2374 15.9922 23.0054 16.0381C22.1651 16.2043 21.3917 16.6718 20.7989 17.3564C20.0387 16.9395 19.1678 16.7973 18.3309 16.9628C18.1468 16.9992 17.9681 17.0505 17.7947 17.113V13.6892C17.7947 11.3314 16.1272 9.40979 14.0645 9.36926V7.42751C14.696 7.30336 15.1781 6.67796 15.1781 5.92548V1.52596C15.1781 0.684606 14.5757 0 13.8353 0H7.28355C6.54309 0 5.94078 0.684606 5.94078 1.52596V5.92548C5.94078 6.67796 6.42289 7.30336 7.05431 7.42751V9.36902C4.9916 9.40943 3.32421 11.331 3.32421 13.6889V40.411C1.71568 42.0619 0.714294 44.3654 0.714294 46.9126C0.714294 51.9234 4.58415 56 9.34099 56L41.5875 55.9893C42.6882 55.9888 43.7233 55.4391 44.4273 54.4812C45.1131 53.5488 45.4045 52.3377 45.2366 51.1433L51.6773 52.4587C51.7665 52.4769 51.8578 52.4861 51.9483 52.4861C52.2695 52.4861 52.5773 52.3741 52.8379 52.1624C53.1729 51.8904 53.3997 51.4694 53.4602 51.0076L53.6346 49.6773C53.6598 49.4867 53.657 49.2948 53.6264 49.1067C53.5155 48.4265 53.0597 47.8868 52.4651 47.732L50.195 47.1402L54.4619 46.2494C54.8643 46.1654 55.2134 45.9087 55.445 45.5264C55.6762 45.1452 55.7625 44.6845 55.6884 44.229ZM46.4781 26.5026C46.9631 26.5026 47.44 26.5899 47.8984 26.7619C48.3081 28.1797 48.1547 29.709 47.5132 30.9722H45.3429L46.0354 30.1833C46.3497 29.8254 46.3491 29.2457 46.034 28.8885C45.719 28.5313 45.2088 28.5319 44.8947 28.8899L44.5283 29.3073C44.3565 28.6646 44.0566 28.0891 43.6624 27.617C44.462 26.8955 45.4436 26.5026 46.4781 26.5026ZM41.9346 21.9155C43.3896 21.9155 44.5733 23.2646 44.5733 24.9231C44.5733 24.9538 44.572 24.9842 44.5713 25.0147C43.722 25.3286 42.9392 25.8529 42.2716 26.565C42.1653 26.5192 42.0576 26.4767 41.947 26.4419C41.7113 24.9951 40.8533 23.8354 39.7199 23.2937C40.1903 22.4655 41.0065 21.9155 41.9346 21.9155ZM37.6759 16.8153C38.2231 16.8153 38.7608 16.9159 39.279 17.1149C39.6955 18.5222 39.6104 20.0339 39.0798 21.3433C38.6435 21.7948 38.2896 22.3478 38.0477 22.9695C37.9038 22.979 37.76 22.9971 37.6179 23.0251C36.9866 23.15 36.3979 23.4613 35.9052 23.9128C35.7372 23.5636 35.5315 23.2415 35.2959 22.9514L37.1434 20.847C37.4577 20.4891 37.4571 19.9094 37.142 19.5523C36.827 19.1951 36.3169 19.1957 36.0026 19.5538L33.9833 21.8538C33.599 21.6474 33.1837 21.5038 32.7473 21.4367C32.9358 20.3441 33.4023 19.3146 34.124 18.4925C35.0735 17.4109 36.3349 16.8153 37.6759 16.8153ZM31.5024 30.9722H30.804C30.6864 30.6321 30.3956 30.391 30.0545 30.391C29.7135 30.391 29.4227 30.6322 29.3051 30.9722H28.4835C28.6743 30.6192 28.6357 30.1514 28.3664 29.8459C28.0515 29.4887 27.5413 29.4893 27.227 29.8473L26.4676 30.7121C26.3994 30.7897 26.347 30.8782 26.3084 30.9722H24.6686C24.0545 29.9012 23.6797 28.6371 23.6354 27.2772H36.417C36.3726 28.6371 35.9978 29.9012 35.3837 30.9722H33.6773C33.6389 30.8782 33.5862 30.7896 33.5181 30.7119L32.7589 29.8471C32.4445 29.4893 31.9345 29.4884 31.6196 29.8457C31.35 30.1511 31.3115 30.619 31.5024 30.9722ZM29.6286 25.446C29.9323 24.167 30.9589 23.2233 32.1756 23.2233C33.3923 23.2233 34.419 24.1672 34.7226 25.446H29.6286ZM31.2761 14.188C32.0425 15.1292 32.5492 16.2467 32.7977 17.4213C32.3863 17.9293 32.0446 18.4906 31.7751 19.0879C31.6528 19.0027 31.5093 18.9528 31.3554 18.9528H30.2818C29.8369 18.9528 29.4762 19.3627 29.4762 19.8683C29.4762 20.374 29.8369 20.7839 30.2818 20.7839H31.2236C31.1707 21.0367 31.1295 21.2926 31.0996 21.5504C30.7797 21.6459 30.4742 21.7819 30.1883 21.955C29.6513 20.9019 28.762 20.117 27.7085 19.8022C27.7081 19.7996 27.7077 19.7971 27.7073 19.7945C27.6441 19.3802 27.5339 18.9871 27.3836 18.6217L31.2761 14.188ZM16.7121 22.4497C16.6649 22.2995 16.6291 22.1454 16.6056 21.9909C16.3745 20.477 17.2726 19.0307 18.6071 18.7666C18.7478 18.7388 18.8908 18.7246 19.0319 18.7246C19.5627 18.7246 20.0699 18.917 20.4986 19.2809C20.676 19.4316 20.9003 19.4925 21.1186 19.4495C21.3369 19.4064 21.5299 19.2632 21.6524 19.0534C22.0306 18.405 22.6093 17.9748 23.2817 17.8418C23.4228 17.8138 23.5661 17.7998 23.7075 17.7998C24.9012 17.7998 25.9157 18.7703 26.1196 20.1076C26.143 20.2608 26.155 20.4205 26.1552 20.5823C26.156 21.0562 26.4749 21.4512 26.8904 21.4927C27.7912 21.5827 28.5579 22.2269 28.9134 23.1344C28.4375 23.7835 28.1076 24.576 27.9824 25.446H23.3877C22.8165 25.446 22.3263 25.8468 22.1219 26.414C21.1111 25.6316 19.9198 25.2101 18.6713 25.2101C17.8892 25.2101 17.1229 25.3774 16.3933 25.7075C16.2696 25.7637 16.1589 25.8466 16.0646 25.9538C15.969 26.0624 15.8956 26.1897 15.8475 26.3294C15.6621 26.8608 15.5385 27.4071 15.4716 27.9568C15.1829 27.5832 14.9794 27.1187 14.8999 26.5975C14.7105 25.3552 15.2827 24.1183 16.2911 23.5895C16.67 23.3907 16.8528 22.8961 16.7121 22.4497ZM19.1139 30.7218L19.3337 30.9722H17.3987C16.9643 29.8269 16.8983 28.5232 17.251 27.3005C17.7101 27.1283 18.1867 27.0411 18.6713 27.0411C19.8853 27.0411 21.0273 27.5803 21.8867 28.5592C22.001 28.6895 22.1075 28.826 22.2075 28.967C22.344 29.6694 22.5538 30.3405 22.8241 30.9721H21.6099L20.2546 29.4283C19.9402 29.0705 19.43 29.0695 19.1153 29.4268C18.8002 29.7842 18.7996 30.3639 19.1139 30.7218ZM15.6828 30.9722H12.8107C12.9388 30.0853 13.4082 29.3293 14.0598 28.8835C14.4456 29.4708 14.949 29.9457 15.5291 30.2673C15.5701 30.5049 15.6205 30.7404 15.6828 30.9722ZM7.5521 1.83115H13.5667V5.62029H7.5521V1.83115ZM12.4532 7.45144V9.36719H8.66574V7.45144H12.4532ZM4.93564 17.402H10.1674C10.6124 17.402 10.973 16.9921 10.973 16.4865C10.973 15.9808 10.6124 15.5709 10.1674 15.5709H4.93564V13.6889C4.93564 12.3156 5.91575 11.1983 7.12048 11.1983H13.9985C15.2033 11.1983 16.1834 12.3156 16.1834 13.6889V15.5709H14.6791C14.234 15.5709 13.8734 15.9808 13.8734 16.4865C13.8734 16.9921 14.234 17.402 14.6791 17.402H16.1834V18.2147C15.2603 19.2432 14.7809 20.7515 15.0177 22.3029C15.0181 22.306 15.0186 22.3092 15.0191 22.3123C13.7266 23.3201 13.0379 25.1117 13.3121 26.9102C13.3282 27.0152 13.3482 27.1185 13.3702 27.2207C12.9676 27.4729 12.6062 27.7986 12.2964 28.1797H4.93564V17.402ZM4.93553 30.0107H11.3608C11.2753 30.3193 11.215 30.6405 11.1855 30.9722H11.0497C10.3082 30.9722 9.70483 31.6584 9.70483 32.5018C9.70483 33.9556 9.82374 35.3828 10.0542 36.7791C9.82267 36.758 9.58527 36.7467 9.34378 36.7467C8.36947 36.7467 7.44114 36.9223 6.73011 37.2415C5.64247 37.7295 5.3418 38.4225 5.27616 38.9021C5.1609 38.9672 5.04768 39.0361 4.93553 39.1065V30.0107ZM15.1375 41.2583C15.4276 41.5221 15.605 41.7463 15.7078 41.9081C15.6981 41.9082 15.688 41.9083 15.6778 41.9083C15.2218 41.9083 14.4025 41.6994 13.4708 41.1134C13.1239 40.895 12.8044 40.6482 12.5466 40.4001C12.246 40.1106 11.8052 40.1109 11.5049 40.4002C11.2471 40.6486 10.9276 40.8952 10.5811 41.1131C9.64918 41.6994 8.82988 41.9083 8.37398 41.9083C8.36356 41.9083 8.35357 41.9082 8.3438 41.9081C8.44649 41.7463 8.62385 41.5219 8.9141 41.258C9.16772 41.0273 9.27461 40.6459 9.18512 40.291C9.09553 39.936 8.82719 39.6769 8.50439 39.6339C7.71818 39.5292 7.22103 39.3017 6.98825 39.1362C7.2799 38.9298 8.01724 38.5778 9.34411 38.5778C10.443 38.5778 11.2462 38.8404 11.6314 39.0863C11.8765 39.2425 12.1752 39.2425 12.4202 39.0864C12.8057 38.8405 13.609 38.5779 14.7079 38.5779C16.0349 38.5779 16.7721 38.93 17.0636 39.1363C16.831 39.302 16.3337 39.5293 15.5473 39.634C15.2245 39.6771 14.956 39.9362 14.8665 40.2913C14.7767 40.6463 14.8836 41.0277 15.1375 41.2583ZM13.5258 52.4022L13.5535 52.5718C13.6493 53.1599 13.8514 53.6996 14.1337 54.1688H9.34099C5.47274 54.1688 2.32562 50.9138 2.32562 46.9126C2.32562 44.1782 3.796 41.7933 5.96119 40.5567C6.20987 40.7676 6.51989 40.9495 6.8877 41.0963C6.74182 41.3794 6.6402 41.6838 6.61625 42.0013C6.58445 42.4235 6.6981 42.8244 6.93658 43.1303C7.25164 43.5346 7.73526 43.7396 8.37398 43.7396C9.22519 43.7396 10.3421 43.3566 11.3615 42.7152C11.5962 42.5677 11.8181 42.4118 12.0259 42.2489C12.2335 42.4116 12.4555 42.5675 12.6903 42.7154C13.7097 43.3566 14.8266 43.7395 15.6778 43.7396H15.6779C16.3164 43.7396 16.8 43.5346 17.115 43.1304C17.3536 42.8245 17.4673 42.4236 17.4354 42.0013C17.4115 41.6838 17.3098 41.3794 17.164 41.0963C17.5318 40.9494 17.8419 40.7675 18.0906 40.5567C19.8077 41.5374 21.0872 43.2405 21.5434 45.2674L15.8453 47.7274C14.1773 48.4476 13.2018 50.4135 13.5258 52.4022ZM43.1907 53.3072C42.7934 53.8478 42.2087 54.1579 41.5868 54.1581L40.7412 54.1585L40.2129 50.9167C40.1317 50.4195 39.7116 50.0908 39.2739 50.1832C38.8365 50.2752 38.5474 50.7529 38.6284 51.2501L39.1025 54.1591L36.3304 54.1603L35.9733 51.9682C35.8921 51.471 35.4719 51.1426 35.0343 51.2346C34.5969 51.3267 34.3078 51.8043 34.3888 52.3016L34.6917 54.161L28.2437 54.1638L27.7584 51.1866C27.6772 50.6894 27.2572 50.361 26.8194 50.4532C26.3819 50.5452 26.0929 51.0231 26.1739 51.5203L26.605 54.1646L17.1902 54.1687C17.19 54.1687 17.1897 54.1687 17.1895 54.1687C16.1828 54.1687 15.32 53.3569 15.1376 52.238L15.1098 52.0683C14.9278 50.9505 15.4776 49.8449 16.4172 49.4391L19.5836 48.0721L19.8195 49.5189C19.8914 49.9598 20.23 50.2679 20.6107 50.2679C20.6595 50.2679 20.7089 50.2628 20.7585 50.2524C21.1959 50.1602 21.4849 49.6825 21.4038 49.1853L21.1145 47.4112L25.8147 45.382C26.2307 45.2024 26.4398 44.6736 26.2818 44.2009C26.1238 43.7281 25.6579 43.4906 25.2426 43.6701L23.0554 44.6144C22.4418 42.1456 20.8655 40.0834 18.7752 38.9019C18.7095 38.4224 18.4089 37.7294 17.3213 37.2413C16.6103 36.9222 15.682 36.7466 14.7077 36.7466C14.0371 36.7466 13.3968 36.8307 12.8315 36.9839V36.4309C12.8315 35.9252 12.4709 35.5153 12.0259 35.5153C11.8378 35.5153 11.6653 35.589 11.5281 35.7118C11.401 34.7568 11.3299 33.7868 11.3181 32.8031H37.5599C38.0049 32.8031 38.3655 32.3932 38.3655 31.8875C38.3655 31.3819 38.0049 30.972 37.5599 30.972H37.2302C37.7432 29.7712 38.0331 28.4249 38.0331 27.0021C38.0331 26.1944 37.4892 25.5289 36.7961 25.4534C37.0978 25.13 37.4745 24.9119 37.8943 24.8288C38.0173 24.8045 38.1421 24.7922 38.2654 24.7922C39.3056 24.7922 40.1894 25.6378 40.367 26.8027C40.3875 26.9376 40.398 27.0767 40.3982 27.2165C40.3987 27.6907 40.7177 28.0859 41.1333 28.1275C42.0962 28.2235 42.8839 29.0464 43.049 30.1285C43.0928 30.4163 43.0873 30.7002 43.0434 30.972H42.179C41.7339 30.972 41.3733 31.3819 41.3733 31.8875C41.3733 32.3932 41.7339 32.8031 42.179 32.8031H48.4408C48.4208 34.4826 48.2305 36.1232 47.8754 37.715L43.5092 40.6441C43.2421 39.5879 42.6215 38.692 41.7663 38.148C40.8071 37.538 39.6673 37.4426 38.6392 37.8864L29.6469 41.7687C29.2308 41.9482 29.0218 42.4771 29.1798 42.9498C29.3378 43.4226 29.8036 43.6599 30.219 43.4805L31.4036 42.9692L31.7715 45.226C31.8433 45.6668 32.1819 45.9751 32.5627 45.9751C32.6114 45.9751 32.6608 45.9699 32.7104 45.9596C33.1478 45.8675 33.4369 45.3898 33.3559 44.8926L32.9347 42.3082L39.2113 39.5985C39.7928 39.3475 40.4371 39.4014 40.9793 39.7462C41.5205 40.0904 41.8954 40.6836 42.008 41.3736L43.6379 51.3735C43.7502 52.0632 43.5873 52.7679 43.1907 53.3072ZM46.0653 46.1406C45.6894 46.2191 45.4139 46.5868 45.4054 47.021C45.397 47.4552 45.6583 47.8364 46.0307 47.9334L52.0291 49.497L51.8793 50.6395L44.9254 49.2194L43.8384 42.5498L49.8953 38.4866L50.3998 39.5019L45.2911 43.3829C44.9735 43.6242 44.8486 44.0859 44.9924 44.4883C45.136 44.8907 45.5087 45.1231 45.8845 45.0446L53.9095 43.3693L54.0883 44.4656L46.0653 46.1406Z"/>
         </symbol>
    <symbol id="alcohol" fill="none" viewBox="0 0 56 56">
        <path style="fill: var(--icon-color, #071f41)" d="M13.5353 4.72461C13.0764 4.72461 12.7043 5.09659 12.7043 5.55553V5.90706C12.7043 6.36589 13.0763 6.73798 13.5353 6.73798C13.9941 6.73798 14.3662 6.366 14.3662 5.90706V5.55553C14.3661 5.09659 13.9941 4.72461 13.5353 4.72461Z"/>
        <path style="fill: var(--icon-color, #071f41)" d="M11.1192 7.4917H10.7678C10.309 7.4917 9.93689 7.86368 9.93689 8.32262C9.93689 8.78145 10.3089 9.15354 10.7678 9.15354H11.1192C11.5781 9.15354 11.9502 8.78156 11.9502 8.32262C11.9502 7.86379 11.5782 7.4917 11.1192 7.4917Z"/>
        <path style="fill: var(--icon-color, #071f41)" d="M12.4144 6.02695L12.1657 5.77845C11.8413 5.45404 11.3151 5.45404 10.9907 5.77856C10.6663 6.10307 10.6663 6.62917 10.9908 6.95357L11.2394 7.20207C11.4016 7.36428 11.6143 7.44543 11.8269 7.44543C12.0395 7.44543 12.2523 7.36428 12.4145 7.20196C12.7389 6.87745 12.7389 6.35135 12.4144 6.02695Z"/>
        <path style="fill: var(--icon-color, #071f41)" d="M12.4144 9.44358C12.0899 9.11907 11.5638 9.11907 11.2393 9.44358L10.9907 9.69219C10.6662 10.0166 10.6662 10.5428 10.9907 10.8672C11.1529 11.0294 11.3655 11.1106 11.5783 11.1106C11.7909 11.1106 12.0035 11.0294 12.1658 10.8672L12.4144 10.6186C12.739 10.2942 12.739 9.76799 12.4144 9.44358Z"/>
        <path style="fill: var(--icon-color, #071f41)" d="M49.7966 6.85344H21.7263C21.4095 5.07598 20.5219 3.44805 19.1799 2.20795C17.6392 0.784109 15.6344 0 13.5353 0C8.94603 0 5.2124 3.73363 5.2124 8.32289C5.2124 12.9122 8.94603 16.6458 13.5353 16.6458C14.3779 16.6458 15.2059 16.5178 16.0049 16.269C17.2569 17.4502 18.8082 18.3339 20.5601 18.7895C21.6919 19.0839 22.5518 20.0179 22.7506 21.1692L23.8067 27.2869C24.1799 29.4483 25.3826 31.322 27.1934 32.5629C28.5664 33.5037 29.386 35.0378 29.386 36.6667V49.1358C28.7525 49.5373 28.3467 50.243 28.3467 51.0216C28.3467 51.0453 28.3471 51.0689 28.3478 51.0926C26.2718 51.5169 24.5618 51.9077 23.2638 52.2545C22.3795 52.4907 21.7124 52.6991 21.2242 52.8915C20.7695 53.0707 19.9229 53.4044 19.9229 54.1789C19.9229 55.2196 21.276 55.3972 22.3632 55.5401C23.2972 55.6628 24.5912 55.765 26.2093 55.844C28.9428 55.9776 31.712 55.9998 31.7397 56C31.7417 56 31.7438 56 31.7459 56C31.748 56 31.7502 56 31.7521 56C31.7798 55.9998 34.549 55.9775 37.2825 55.844C38.9006 55.765 40.1946 55.6628 41.1286 55.5401C42.2158 55.3972 43.5689 55.2196 43.5689 54.1789C43.5689 53.3558 42.8098 52.9312 40.0374 52.2039C38.3574 51.7632 36.2644 51.3183 34.7613 51.0147C34.7595 50.4148 34.521 49.8541 34.1058 49.4417V36.6665C34.1058 35.0377 34.9255 33.5036 36.2985 32.5628C38.1092 31.3219 39.3119 29.4482 39.6851 27.2868L40.7412 21.1691C40.94 20.0178 41.7998 19.0837 42.9317 18.7894C46.7271 17.8024 49.5817 14.8092 50.4845 11.1234C50.488 11.1092 50.4917 11.0952 50.4945 11.0808C50.6852 10.2879 50.7875 9.464 50.7875 8.62061V7.84459C50.7876 7.29805 50.343 6.85344 49.7966 6.85344ZM13.5353 14.9839C9.86237 14.9839 6.87425 11.9958 6.87425 8.32289C6.87425 4.64997 9.86237 1.66184 13.5353 1.66184C15.2152 1.66184 16.8193 2.28922 18.0522 3.42847C19.0525 4.3528 19.737 5.54575 20.0313 6.85344H19.1802C18.5225 4.31988 16.214 2.48828 13.5353 2.48828C10.318 2.48828 7.70068 5.10573 7.70068 8.32289C7.70068 11.54 10.3181 14.1575 13.5353 14.1575C13.7748 14.1575 14.0149 14.1413 14.254 14.1115C14.4135 14.3717 14.5842 14.6244 14.7654 14.8695C14.3616 14.9454 13.9506 14.9839 13.5353 14.9839ZM16.0797 5.7785C15.7553 5.45409 15.2291 5.45409 14.9047 5.7785L14.6562 6.027C14.4324 6.25067 14.363 6.57027 14.4478 6.85344H13.6955C13.149 6.85344 12.7044 7.29805 12.7044 7.84459V8.62061C12.7044 9.46378 12.8066 10.2875 12.9973 11.0801C13.0002 11.0955 13.0042 11.1105 13.0079 11.1256C13.1226 11.5935 13.2678 12.0506 13.4434 12.4935C11.1849 12.4443 9.36242 10.593 9.36242 8.32289C9.36242 6.02197 11.2344 4.15002 13.5353 4.15002C15.3006 4.15002 16.8416 5.2617 17.4406 6.85344H16.1639C16.4002 6.52848 16.3727 6.07152 16.0797 5.7785ZM34.3099 52.6189C37.2309 53.2067 39.0648 53.6522 40.2126 53.974C38.1135 54.1802 34.7462 54.3152 31.746 54.3382C28.7465 54.3152 25.3795 54.1802 23.2803 53.9742C24.3781 53.6663 26.103 53.2454 28.8063 52.6949C29.5541 52.5428 30.0718 51.8425 30.0104 51.0666C30.0092 51.0518 30.0086 51.0367 30.0086 51.0215C30.0086 50.7641 30.1826 50.5378 30.4319 50.471C30.7952 50.3737 31.0479 50.0445 31.0479 49.6684V36.6665C31.0479 35.5725 30.7725 34.5115 30.267 33.568C30.7314 33.5981 31.2385 33.6135 31.746 33.6135C32.2535 33.6135 32.7606 33.5981 33.225 33.568C32.7196 34.5116 32.4441 35.5726 32.4441 36.6665V49.8361C32.4441 50.1212 32.5904 50.3864 32.8314 50.5386C32.9993 50.6446 33.0996 50.825 33.0996 51.0214C33.0996 51.034 33.0992 51.0466 33.0985 51.0581C33.0506 51.7994 33.5714 52.4704 34.3099 52.6189ZM49.126 8.62061H49.1259C49.1259 9.12012 49.0839 9.61166 49.0032 10.0917H23.989C23.5302 10.0917 23.1581 10.4637 23.1581 10.9226C23.1581 11.3815 23.5301 11.7535 23.989 11.7535H48.5522C47.5587 14.3772 45.3481 16.4442 42.5138 17.1812C40.7518 17.6393 39.4134 19.0937 39.104 20.8865L38.0479 27.0041C37.7517 28.7198 36.7969 30.2071 35.3594 31.1921C35.1365 31.3449 34.4746 31.7017 34.3538 31.7555C33.6963 32.0147 29.8013 32.0148 29.1394 31.756C29.019 31.7028 28.3563 31.3453 28.1327 31.1922C26.6952 30.2071 25.7404 28.7198 25.4443 27.0042L24.3881 20.8866C24.0787 19.0938 22.7402 17.6395 20.9784 17.1813C19.3746 16.7642 17.9709 15.921 16.8736 14.7925C16.8476 14.7604 16.8191 14.7308 16.789 14.7033C15.9876 13.856 15.3566 12.8541 14.9399 11.7537H20.1232C20.582 11.7537 20.9541 11.3817 20.9541 10.9227C20.9541 10.4639 20.5821 10.0918 20.1232 10.0918H14.4889C14.4082 9.61176 14.3662 9.12012 14.3662 8.62072V8.51528H49.126V8.62061Z"/>
    </symbol>
    
</svg>